<svg viewBox="0 0 36 36" fill="none" xmlns="http://www.w3.org/2000/svg">
<path fill-rule="evenodd" clip-rule="evenodd" d="M15 9C15.1541 9.00007 15.3045 9.04762 15.4307 9.1362C15.5568 9.22477 15.6526 9.35006 15.705 9.49502L21 24.0547L23.295 17.7424C23.3479 17.598 23.4439 17.4734 23.57 17.3854C23.6961 17.2974 23.8462 17.2502 24 17.2504H29.25C29.4489 17.2504 29.6397 17.3294 29.7803 17.4701C29.921 17.6107 30 17.8015 30 18.0004C30 18.1994 29.921 18.3901 29.7803 18.5308C29.6397 18.6715 29.4489 18.7505 29.25 18.7505H24.525L21.705 26.5059C21.6524 26.6507 21.5566 26.7758 21.4305 26.8642C21.3043 26.9526 21.154 27 21 27C20.846 27 20.6957 26.9526 20.5695 26.8642C20.4434 26.7758 20.3476 26.6507 20.295 26.5059L15 11.9461L12.705 18.257C12.6523 18.4016 12.5564 18.5266 12.4303 18.6149C12.3042 18.7032 12.154 18.7505 12 18.7505H6.75C6.55109 18.7505 6.36032 18.6715 6.21967 18.5308C6.07902 18.3901 6 18.1994 6 18.0004C6 17.8015 6.07902 17.6107 6.21967 17.4701C6.36032 17.3294 6.55109 17.2504 6.75 17.2504H11.475L14.295 9.49502C14.3474 9.35006 14.4432 9.22477 14.5693 9.1362C14.6955 9.04762 14.8459 9.00007 15 9Z" fill="#040068"/>
</svg>
