<svg viewBox="0 0 36 36" fill="none" xmlns="http://www.w3.org/2000/svg">
<path d="M19.3472 8.80917C18.737 7.73028 17.263 7.73028 16.6528 8.80917L7.22632 25.4758C6.59802 26.5867 7.35232 28 8.57351 28H27.4265C28.6477 28 29.402 26.5867 28.7737 25.4758L19.3472 8.80917ZM17.9979 13.7143C18.7339 13.7143 19.3091 14.3747 19.2358 15.1358L18.7536 20.1464C18.7148 20.5499 18.3881 20.8571 17.9979 20.8571C17.6077 20.8571 17.2809 20.5499 17.2421 20.1464L16.7599 15.1358C16.6867 14.3747 17.2618 13.7143 17.9979 13.7143ZM18 22.2857C18.7592 22.2857 19.3747 22.9253 19.3747 23.7143C19.3747 24.5033 18.7592 25.1429 18 25.1429C17.2408 25.1429 16.6253 24.5033 16.6253 23.7143C16.6253 22.9253 17.2408 22.2857 18 22.2857Z" fill="#040068"/>
</svg>
