<svg  viewBox="0 0 36 36" fill="none" xmlns="http://www.w3.org/2000/svg">
<path fill-rule="evenodd" clip-rule="evenodd" d="M25 17.5C25 17.7462 24.9078 17.9824 24.7437 18.1565C24.5797 18.3306 24.3571 18.4284 24.1251 18.4284H13.9885L17.7453 22.4131C17.8267 22.4994 17.8912 22.6019 17.9352 22.7147C17.9792 22.8275 18.0019 22.9483 18.0019 23.0704C18.0019 23.1925 17.9792 23.3134 17.9352 23.4262C17.8912 23.5389 17.8267 23.6414 17.7453 23.7277C17.664 23.8141 17.5674 23.8825 17.4611 23.9292C17.3548 23.976 17.2409 24 17.1259 24C17.0108 24 16.8969 23.976 16.7906 23.9292C16.6844 23.8825 16.5878 23.8141 16.5064 23.7277L11.257 18.1573C11.1756 18.0711 11.1109 17.9686 11.0668 17.8558C11.0227 17.743 11 17.6221 11 17.5C11 17.3779 11.0227 17.257 11.0668 17.1442C11.1109 17.0314 11.1756 16.9289 11.257 16.8427L16.5064 11.2723C16.6707 11.0979 16.8935 11 17.1259 11C17.3582 11 17.581 11.0979 17.7453 11.2723C17.9096 11.4466 18.0019 11.683 18.0019 11.9296C18.0019 12.1761 17.9096 12.4126 17.7453 12.5869L13.9885 16.5716H24.1251C24.3571 16.5716 24.5797 16.6694 24.7437 16.8435C24.9078 17.0176 25 17.2538 25 17.5Z" fill="#040068"/>
</svg>
