<svg  viewBox="0 0 36 36" fill="none" xmlns="http://www.w3.org/2000/svg">
<path d="M16 20.5C16 20.3674 16.0439 20.2402 16.122 20.1464C16.2002 20.0527 16.3062 20 16.4167 20H18.0833C18.1938 20 18.2998 20.0527 18.378 20.1464C18.4561 20.2402 18.5 20.3674 18.5 20.5C18.5 20.6326 18.4561 20.7598 18.378 20.8536C18.2998 20.9473 18.1938 21 18.0833 21H16.4167C16.3062 21 16.2002 20.9473 16.122 20.8536C16.0439 20.7598 16 20.6326 16 20.5ZM16 18.5C16 18.3674 16.0439 18.2402 16.122 18.1464C16.2002 18.0527 16.3062 18 16.4167 18H20.5833C20.6938 18 20.7998 18.0527 20.878 18.1464C20.9561 18.2402 21 18.3674 21 18.5C21 18.6326 20.9561 18.7598 20.878 18.8536C20.7998 18.9473 20.6938 19 20.5833 19H16.4167C16.3062 19 16.2002 18.9473 16.122 18.8536C16.0439 18.7598 16 18.6326 16 18.5ZM16 16.5C16 16.3674 16.0439 16.2402 16.122 16.1464C16.2002 16.0527 16.3062 16 16.4167 16H20.5833C20.6938 16 20.7998 16.0527 20.878 16.1464C20.9561 16.2402 21 16.3674 21 16.5C21 16.6326 20.9561 16.7598 20.878 16.8536C20.7998 16.9473 20.6938 17 20.5833 17H16.4167C16.3062 17 16.2002 16.9473 16.122 16.8536C16.0439 16.7598 16 16.6326 16 16.5ZM16 14.5C16 14.3674 16.0439 14.2402 16.122 14.1464C16.2002 14.0527 16.3062 14 16.4167 14H20.5833C20.6938 14 20.7998 14.0527 20.878 14.1464C20.9561 14.2402 21 14.3674 21 14.5C21 14.6326 20.9561 14.7598 20.878 14.8536C20.7998 14.9473 20.6938 15 20.5833 15H16.4167C16.3062 15 16.2002 14.9473 16.122 14.8536C16.0439 14.7598 16 14.6326 16 14.5Z" fill="#040068"/>
<path d="M12.4286 9H24.5714C25.2155 9 25.8332 9.23705 26.2887 9.65901C26.7441 10.081 27 10.6533 27 11.25V24.75C27 25.3467 26.7441 25.919 26.2887 26.341C25.8332 26.7629 25.2155 27 24.5714 27H12.4286C11.7845 27 11.1668 26.7629 10.7113 26.341C10.2559 25.919 10 25.3467 10 24.75V23.625H11.2143V24.75C11.2143 25.0484 11.3422 25.3345 11.5699 25.5455C11.7977 25.7565 12.1065 25.875 12.4286 25.875H24.5714C24.8935 25.875 25.2023 25.7565 25.4301 25.5455C25.6578 25.3345 25.7857 25.0484 25.7857 24.75V11.25C25.7857 10.9516 25.6578 10.6655 25.4301 10.4545C25.2023 10.2435 24.8935 10.125 24.5714 10.125H12.4286C12.1065 10.125 11.7977 10.2435 11.5699 10.4545C11.3422 10.6655 11.2143 10.9516 11.2143 11.25V12.375H10V11.25C10 10.6533 10.2559 10.081 10.7113 9.65901C11.1668 9.23705 11.7845 9 12.4286 9V9Z" fill="#040068"/>
<path d="M10 14.25V13.625C10 13.4592 10.0527 13.3003 10.1464 13.1831C10.2402 13.0658 10.3674 13 10.5 13C10.6326 13 10.7598 13.0658 10.8536 13.1831C10.9473 13.3003 11 13.4592 11 13.625V14.25H11.5C11.6326 14.25 11.7598 14.3158 11.8536 14.4331C11.9473 14.5503 12 14.7092 12 14.875C12 15.0408 11.9473 15.1997 11.8536 15.3169C11.7598 15.4342 11.6326 15.5 11.5 15.5H9.5C9.36739 15.5 9.24021 15.4342 9.14645 15.3169C9.05268 15.1997 9 15.0408 9 14.875C9 14.7092 9.05268 14.5503 9.14645 14.4331C9.24021 14.3158 9.36739 14.25 9.5 14.25H10ZM10 18V17.375C10 17.2092 10.0527 17.0503 10.1464 16.9331C10.2402 16.8158 10.3674 16.75 10.5 16.75C10.6326 16.75 10.7598 16.8158 10.8536 16.9331C10.9473 17.0503 11 17.2092 11 17.375V18H11.5C11.6326 18 11.7598 18.0658 11.8536 18.1831C11.9473 18.3003 12 18.4592 12 18.625C12 18.7908 11.9473 18.9497 11.8536 19.0669C11.7598 19.1842 11.6326 19.25 11.5 19.25H9.5C9.36739 19.25 9.24021 19.1842 9.14645 19.0669C9.05268 18.9497 9 18.7908 9 18.625C9 18.4592 9.05268 18.3003 9.14645 18.1831C9.24021 18.0658 9.36739 18 9.5 18H10ZM10 21.75V21.125C10 20.9592 10.0527 20.8003 10.1464 20.6831C10.2402 20.5658 10.3674 20.5 10.5 20.5C10.6326 20.5 10.7598 20.5658 10.8536 20.6831C10.9473 20.8003 11 20.9592 11 21.125V21.75H11.5C11.6326 21.75 11.7598 21.8158 11.8536 21.9331C11.9473 22.0503 12 22.2092 12 22.375C12 22.5408 11.9473 22.6997 11.8536 22.8169C11.7598 22.9342 11.6326 23 11.5 23H9.5C9.36739 23 9.24021 22.9342 9.14645 22.8169C9.05268 22.6997 9 22.5408 9 22.375C9 22.2092 9.05268 22.0503 9.14645 21.9331C9.24021 21.8158 9.36739 21.75 9.5 21.75H10Z" fill="#040068"/>
</svg>
