<svg  viewBox="0 0 36 36" fill="none" xmlns="http://www.w3.org/2000/svg">
<path d="M27.75 10.5C27.9489 10.5 28.1397 10.579 28.2803 10.7197C28.421 10.8603 28.5 11.0511 28.5 11.25V24.75C28.5 24.9489 28.421 25.1397 28.2803 25.2803C28.1397 25.421 27.9489 25.5 27.75 25.5H8.25C8.05109 25.5 7.86032 25.421 7.71967 25.2803C7.57902 25.1397 7.5 24.9489 7.5 24.75V11.25C7.5 11.0511 7.57902 10.8603 7.71967 10.7197C7.86032 10.579 8.05109 10.5 8.25 10.5H27.75ZM8.25 9C7.65326 9 7.08097 9.23705 6.65901 9.65901C6.23705 10.081 6 10.6533 6 11.25V24.75C6 25.3467 6.23705 25.919 6.65901 26.341C7.08097 26.7629 7.65326 27 8.25 27H27.75C28.3467 27 28.919 26.7629 29.341 26.341C29.7629 25.919 30 25.3467 30 24.75V11.25C30 10.6533 29.7629 10.081 29.341 9.65901C28.919 9.23705 28.3467 9 27.75 9H8.25Z" fill="#040068"/>
<path d="M16.7252 13.5394C16.7252 13.3355 16.8066 13.1399 16.9516 12.9956C17.0965 12.8514 17.2931 12.7704 17.4981 12.7704H25.2271C25.4321 12.7704 25.6287 12.8514 25.7736 12.9956C25.9186 13.1399 26 13.3355 26 13.5394C26 13.7434 25.9186 13.939 25.7736 14.0832C25.6287 14.2274 25.4321 14.3084 25.2271 14.3084H17.4981C17.2931 14.3084 17.0965 14.2274 16.9516 14.0832C16.8066 13.939 16.7252 13.7434 16.7252 13.5394ZM14.4127 12.2259C14.4847 12.2974 14.5418 12.3822 14.5807 12.4757C14.6197 12.5691 14.6398 12.6692 14.6398 12.7704C14.6398 12.8715 14.6197 12.9717 14.5807 13.0651C14.5418 13.1586 14.4847 13.2434 14.4127 13.3149L12.094 15.6219C12.0222 15.6935 11.9369 15.7504 11.843 15.7891C11.7491 15.8279 11.6484 15.8478 11.5468 15.8478C11.4451 15.8478 11.3444 15.8279 11.2505 15.7891C11.1566 15.7504 11.0714 15.6935 10.9996 15.6219L10.2267 14.8529C10.1548 14.7814 10.0978 14.6965 10.0589 14.6031C10.02 14.5097 10 14.4095 10 14.3084C10 14.1042 10.0815 13.9084 10.2267 13.764C10.3718 13.6196 10.5686 13.5384 10.7739 13.5384C10.9791 13.5384 11.176 13.6196 11.3211 13.764L11.5468 13.9901L13.3183 12.2259C13.3901 12.1543 13.4753 12.0975 13.5692 12.0587C13.6631 12.02 13.7638 12 13.8655 12C13.9671 12 14.0678 12.02 14.1617 12.0587C14.2556 12.0975 14.3409 12.1543 14.4127 12.2259ZM16.7252 19.6916C16.7252 19.4876 16.8066 19.292 16.9516 19.1478C17.0965 19.0036 17.2931 18.9225 17.4981 18.9225H25.2271C25.4321 18.9225 25.6287 19.0036 25.7736 19.1478C25.9186 19.292 26 19.4876 26 19.6916C26 19.8955 25.9186 20.0911 25.7736 20.2353C25.6287 20.3796 25.4321 20.4606 25.2271 20.4606H17.4981C17.2931 20.4606 17.0965 20.3796 16.9516 20.2353C16.8066 20.0911 16.7252 19.8955 16.7252 19.6916ZM14.4127 18.3781C14.4847 18.4495 14.5418 18.5344 14.5807 18.6278C14.6197 18.7212 14.6398 18.8214 14.6398 18.9225C14.6398 19.0237 14.6197 19.1239 14.5807 19.2173C14.5418 19.3107 14.4847 19.3956 14.4127 19.467L12.094 21.7741C12.0222 21.8457 11.9369 21.9025 11.843 21.9413C11.7491 21.98 11.6484 22 11.5468 22C11.4451 22 11.3444 21.98 11.2505 21.9413C11.1566 21.9025 11.0714 21.8457 10.9996 21.7741L10.2267 21.0051C10.1548 20.9336 10.0978 20.8487 10.0589 20.7552C10.02 20.6618 10 20.5617 10 20.4606C10 20.3595 10.02 20.2593 10.0589 20.1659C10.0978 20.0725 10.1548 19.9876 10.2267 19.9161C10.2985 19.8446 10.3838 19.7879 10.4777 19.7492C10.5716 19.7105 10.6722 19.6906 10.7739 19.6906C10.8755 19.6906 10.9761 19.7105 11.07 19.7492C11.1639 19.7879 11.2492 19.8446 11.3211 19.9161L11.5468 20.1422L13.3183 18.3781C13.3901 18.3065 13.4753 18.2496 13.5692 18.2109C13.6631 18.1721 13.7638 18.1522 13.8655 18.1522C13.9671 18.1522 14.0678 18.1721 14.1617 18.2109C14.2556 18.2496 14.3409 18.3065 14.4127 18.3781Z" fill="#040068"/>
</svg>
