<svg  viewBox="0 0 36 36" fill="none" xmlns="http://www.w3.org/2000/svg">
<path d="M9.46155 17.5012C9.46133 16.0901 9.8326 14.7037 10.538 13.4816C11.2435 12.2594 12.2582 11.2444 13.4802 10.5388C14.7023 9.83311 16.0885 9.46157 17.4997 9.46151C18.9108 9.46146 20.2971 9.83289 21.5192 10.5385C21.687 10.6338 21.8857 10.659 22.0719 10.6084C22.2581 10.5579 22.4168 10.4357 22.5133 10.2686C22.6098 10.1015 22.6362 9.90297 22.5869 9.71641C22.5376 9.52984 22.4165 9.37037 22.25 9.27277C20.439 8.22716 18.3335 7.80834 16.2602 8.08127C14.1868 8.35419 12.2615 9.30361 10.7827 10.7823C9.30395 12.2609 8.35441 14.1862 8.08135 16.2596C7.80829 18.3329 8.22697 20.4384 9.27247 22.2495C10.318 24.0606 11.9318 25.4761 13.8638 26.2766C15.7958 27.077 17.9379 27.2176 19.9579 26.6765C21.9779 26.1355 23.763 24.943 25.0362 23.2841C26.3095 21.6251 26.9997 19.5924 27 17.5012C27 17.3074 26.923 17.1215 26.786 16.9845C26.6489 16.8474 26.463 16.7705 26.2692 16.7705C26.0754 16.7705 25.8895 16.8474 25.7525 16.9845C25.6155 17.1215 25.5385 17.3074 25.5385 17.5012C25.5385 19.6332 24.6916 21.6778 23.1841 23.1853C21.6766 24.6928 19.6319 25.5397 17.5 25.5397C15.3681 25.5397 13.3235 24.6928 11.816 23.1853C10.3085 21.6778 9.46155 19.6332 9.46155 17.5012Z" fill="#040068"/>
<path d="M27.7867 10.2817C27.8544 10.212 27.908 10.1292 27.9446 10.0381C27.9812 9.94703 28 9.8494 28 9.7508C28 9.65221 27.9812 9.55458 27.9446 9.46348C27.908 9.37239 27.8544 9.28962 27.7867 9.21991C27.7191 9.15019 27.6389 9.09488 27.5505 9.05715C27.4622 9.01942 27.3675 9 27.2719 9C27.1763 9 27.0816 9.01942 26.9933 9.05715C26.9049 9.09488 26.8247 9.15019 26.757 9.21991L17.0912 19.1885L13.243 15.2188C13.1753 15.149 13.0951 15.0937 13.0067 15.056C12.9184 15.0183 12.8237 14.9989 12.7281 14.9989C12.6325 14.9989 12.5378 15.0183 12.4495 15.056C12.3611 15.0937 12.2809 15.149 12.2133 15.2188C12.1456 15.2885 12.092 15.3712 12.0554 15.4623C12.0188 15.5534 12 15.6511 12 15.7497C12 15.8483 12.0188 15.9459 12.0554 16.037C12.092 16.1281 12.1456 16.2108 12.2133 16.2806L16.5764 20.7797C16.6439 20.8495 16.7242 20.9049 16.8125 20.9427C16.9009 20.9805 16.9956 21 17.0912 21C17.1869 21 17.2816 20.9805 17.37 20.9427C17.4583 20.9049 17.5385 20.8495 17.6061 20.7797L27.7867 10.2817Z" fill="#040068"/>
</svg>
