<svg viewBox="0 0 36 36" fill="none" xmlns="http://www.w3.org/2000/svg">
<path d="M27.625 26C27.625 26 29 26 29 24.6667C29 23.3333 27.625 19.3333 22.125 19.3333C16.625 19.3333 15.25 23.3333 15.25 24.6667C15.25 26 16.625 26 16.625 26H27.625ZM16.6557 24.6667C16.651 24.6661 16.6443 24.6653 16.6362 24.664C16.6324 24.6634 16.6287 24.6627 16.625 24.662C16.627 24.31 16.8544 23.2892 17.669 22.3677C18.4308 21.5058 19.7637 20.6667 22.125 20.6667C24.4863 20.6667 25.8192 21.5058 26.581 22.3677C27.3956 23.2892 27.623 24.31 27.625 24.662C27.6213 24.6627 27.6176 24.6634 27.6138 24.664C27.6057 24.6653 27.599 24.6661 27.5943 24.6667H16.6557Z" fill="#040068"/>
<path d="M22.125 16.6667C23.6438 16.6667 24.875 15.4728 24.875 14C24.875 12.5272 23.6438 11.3333 22.125 11.3333C20.6062 11.3333 19.375 12.5272 19.375 14C19.375 15.4728 20.6062 16.6667 22.125 16.6667ZM26.25 14C26.25 16.2091 24.4032 18 22.125 18C19.8468 18 18 16.2091 18 14C18 11.7909 19.8468 10 22.125 10C24.4032 10 26.25 11.7909 26.25 14Z" fill="#040068"/>
<path d="M16.5369 19.7066C16.0312 19.5498 15.4694 19.4357 14.8461 19.3774C14.5377 19.3485 14.2142 19.3333 13.875 19.3333C8.375 19.3333 7 23.3333 7 24.6667C7 25.5556 7.45833 26 8.375 26H14.1725C13.9789 25.6212 13.875 25.1722 13.875 24.6667C13.875 23.3196 14.3937 21.944 15.3735 20.7949C15.7082 20.4023 16.0968 20.0362 16.5369 19.7066ZM13.7651 20.6673C12.9435 21.8848 12.5 23.2729 12.5 24.6667H8.375C8.375 24.319 8.60084 23.2933 9.41898 22.3677C10.1689 21.5193 11.4722 20.6929 13.7651 20.6673Z" fill="#040068"/>
<path d="M9.0625 14.6667C9.0625 12.4575 10.9093 10.6667 13.1875 10.6667C15.4657 10.6667 17.3125 12.4575 17.3125 14.6667C17.3125 16.8758 15.4657 18.6667 13.1875 18.6667C10.9093 18.6667 9.0625 16.8758 9.0625 14.6667ZM13.1875 12C11.6687 12 10.4375 13.1939 10.4375 14.6667C10.4375 16.1394 11.6687 17.3333 13.1875 17.3333C14.7063 17.3333 15.9375 16.1394 15.9375 14.6667C15.9375 13.1939 14.7063 12 13.1875 12Z" fill="#040068"/>
</svg>
