<svg  viewBox="0 0 36 36" fill="none" xmlns="http://www.w3.org/2000/svg">
<path d="M11 11.25C11 10.6533 11.2458 10.081 11.6834 9.65902C12.121 9.23706 12.7145 9 13.3333 9H22.6667C23.2855 9 23.879 9.23706 24.3166 9.65902C24.7542 10.081 25 10.6533 25 11.25V26.4378C24.9999 26.5395 24.9713 26.6394 24.917 26.7266C24.8628 26.8139 24.785 26.8854 24.692 26.9334C24.599 26.9814 24.4942 27.0042 24.3888 26.9994C24.2834 26.9945 24.1813 26.9622 24.0935 26.9058L18 23.7389L11.9065 26.9058C11.8187 26.9622 11.7166 26.9945 11.6112 26.9994C11.5058 27.0042 11.401 26.9814 11.308 26.9334C11.215 26.8854 11.1372 26.8139 11.083 26.7266C11.0287 26.6394 11.0001 26.5395 11 26.4378V11.25ZM13.3333 10.125C13.0239 10.125 12.7272 10.2435 12.5084 10.4545C12.2896 10.6655 12.1667 10.9517 12.1667 11.25V25.387L17.6768 22.5947C17.7726 22.5333 17.885 22.5005 18 22.5005C18.115 22.5005 18.2274 22.5333 18.3232 22.5947L23.8333 25.387V11.25C23.8333 10.9517 23.7104 10.6655 23.4916 10.4545C23.2728 10.2435 22.9761 10.125 22.6667 10.125H13.3333Z" fill="#040068"/>
</svg>
