<svg  viewBox="0 0 36 36" fill="none" xmlns="http://www.w3.org/2000/svg">
<path d="M11 11.3333V27.0833C10.9999 27.1846 11.0262 27.2842 11.0763 27.3722C11.1264 27.4603 11.1986 27.5338 11.2857 27.5855C11.3728 27.6371 11.4719 27.6652 11.5732 27.667C11.6745 27.6688 11.7745 27.6441 11.8633 27.5955L18 24.2472L24.1367 27.5955C24.2255 27.6441 24.3255 27.6688 24.4268 27.667C24.5281 27.6652 24.6272 27.6371 24.7143 27.5855C24.8014 27.5338 24.8736 27.4603 24.9237 27.3722C24.9738 27.2842 25.0001 27.1846 25 27.0833V11.3333C25 10.7145 24.7542 10.121 24.3166 9.68342C23.879 9.24583 23.2855 9 22.6667 9H13.3333C12.7145 9 12.121 9.24583 11.6834 9.68342C11.2458 10.121 11 10.7145 11 11.3333Z" fill="#040068"/>
</svg>
