<svg  viewBox="0 0 36 36" fill="none" xmlns="http://www.w3.org/2000/svg">
<path d="M12.375 8C12.5408 8 12.6997 8.06585 12.8169 8.18306C12.9342 8.30027 13 8.45924 13 8.625V9.25H23V8.625C23 8.45924 23.0658 8.30027 23.1831 8.18306C23.3003 8.06585 23.4592 8 23.625 8C23.7908 8 23.9497 8.06585 24.0669 8.18306C24.1842 8.30027 24.25 8.45924 24.25 8.625V9.25H25.5C26.163 9.25 26.7989 9.51339 27.2678 9.98223C27.7366 10.4511 28 11.087 28 11.75V25.5C28 26.163 27.7366 26.7989 27.2678 27.2678C26.7989 27.7366 26.163 28 25.5 28H10.5C9.83696 28 9.20107 27.7366 8.73223 27.2678C8.26339 26.7989 8 26.163 8 25.5V11.75C8 11.087 8.26339 10.4511 8.73223 9.98223C9.20107 9.51339 9.83696 9.25 10.5 9.25H11.75V8.625C11.75 8.45924 11.8158 8.30027 11.9331 8.18306C12.0503 8.06585 12.2092 8 12.375 8V8ZM10.5 10.5C10.1685 10.5 9.85054 10.6317 9.61612 10.8661C9.3817 11.1005 9.25 11.4185 9.25 11.75V13H26.75V11.75C26.75 11.4185 26.6183 11.1005 26.3839 10.8661C26.1495 10.6317 25.8315 10.5 25.5 10.5H10.5ZM26.75 14.25H9.25V25.5C9.25 25.8315 9.3817 26.1495 9.61612 26.3839C9.85054 26.6183 10.1685 26.75 10.5 26.75H25.5C25.8315 26.75 26.1495 26.6183 26.3839 26.3839C26.6183 26.1495 26.75 25.8315 26.75 25.5V14.25Z" fill="#040068"/>
</svg>
