<svg  viewBox="0 0 36 36" fill="none" xmlns="http://www.w3.org/2000/svg">
<path d="M26.7701 11.257C26.843 11.3383 26.9008 11.4348 26.9402 11.5411C26.9797 11.6474 27 11.7613 27 11.8764C27 11.9914 26.9797 12.1054 26.9402 12.2117C26.9008 12.3179 26.843 12.4145 26.7701 12.4957L15.815 24.743C15.7424 24.8245 15.656 24.8891 15.5609 24.9332C15.4659 24.9773 15.364 25 15.261 25C15.1581 25 15.0562 24.9773 14.9611 24.9332C14.8661 24.8891 14.7797 24.8245 14.707 24.743L9.22948 18.6194C9.08255 18.4551 9 18.2323 9 18C9 17.7677 9.08255 17.5449 9.22948 17.3806C9.37641 17.2164 9.5757 17.1241 9.78349 17.1241C9.99129 17.1241 10.1906 17.2164 10.3375 17.3806L15.261 22.8867L25.6621 11.257C25.7348 11.1755 25.8211 11.1109 25.9162 11.0668C26.0113 11.0227 26.1132 11 26.2161 11C26.319 11 26.4209 11.0227 26.516 11.0668C26.6111 11.1109 26.6974 11.1755 26.7701 11.257Z" fill="#040068"/>
</svg>
