<svg  viewBox="0 0 36 36" fill="none" xmlns="http://www.w3.org/2000/svg">
<path fill-rule="evenodd" clip-rule="evenodd" d="M21.8112 9.19207C21.871 9.2528 21.9185 9.32494 21.9509 9.40437C21.9833 9.4838 22 9.56894 22 9.65494C22 9.74093 21.9833 9.82608 21.9509 9.90551C21.9185 9.98493 21.871 10.0571 21.8112 10.1178L14.5526 17.5002L21.8112 24.8825C21.8709 24.9433 21.9183 25.0155 21.9507 25.0949C21.983 25.1743 21.9997 25.2594 21.9997 25.3454C21.9997 25.4314 21.983 25.5165 21.9507 25.5959C21.9183 25.6753 21.8709 25.7475 21.8112 25.8083C21.7514 25.8691 21.6805 25.9173 21.6024 25.9502C21.5243 25.9831 21.4407 26 21.3562 26C21.2717 26 21.188 25.9831 21.1099 25.9502C21.0318 25.9173 20.9609 25.8691 20.9011 25.8083L13.1888 17.963C13.129 17.9023 13.0815 17.8302 13.0491 17.7507C13.0167 17.6713 13 17.5862 13 17.5002C13 17.4142 13.0167 17.329 13.0491 17.2496C13.0815 17.1702 13.129 17.098 13.1888 17.0373L20.9011 9.19207C20.9608 9.13119 21.0318 9.08288 21.1098 9.04992C21.1879 9.01697 21.2716 9 21.3562 9C21.4407 9 21.5244 9.01697 21.6025 9.04992C21.6806 9.08288 21.7515 9.13119 21.8112 9.19207Z" fill="#040068"/>
</svg>
