<svg  viewBox="0 0 36 36" fill="none" xmlns="http://www.w3.org/2000/svg">
<path fill-rule="evenodd" clip-rule="evenodd" d="M15.1888 25.8079C15.129 25.7472 15.0815 25.6751 15.0491 25.5956C15.0167 25.5162 15 25.4311 15 25.3451C15 25.2591 15.0167 25.1739 15.0491 25.0945C15.0815 25.0151 15.129 24.9429 15.1888 24.8822L22.4474 17.4998L15.1888 10.1175C15.1291 10.0567 15.0817 9.98452 15.0493 9.9051C15.017 9.82568 15.0003 9.74056 15.0003 9.65459C15.0003 9.56863 15.017 9.48351 15.0493 9.40409C15.0817 9.32467 15.1291 9.25251 15.1888 9.19172C15.2486 9.13094 15.3195 9.08272 15.3976 9.04983C15.4757 9.01693 15.5593 9 15.6438 9C15.7283 9 15.812 9.01693 15.8901 9.04983C15.9682 9.08272 16.0391 9.13094 16.0989 9.19172L23.8112 17.037C23.871 17.0977 23.9185 17.1698 23.9509 17.2493C23.9833 17.3287 24 17.4138 24 17.4998C24 17.5858 23.9833 17.671 23.9509 17.7504C23.9185 17.8298 23.871 17.902 23.8112 17.9627L16.0989 25.8079C16.0392 25.8688 15.9682 25.9171 15.8902 25.9501C15.8121 25.983 15.7284 26 15.6438 26C15.5593 26 15.4756 25.983 15.3975 25.9501C15.3194 25.9171 15.2485 25.8688 15.1888 25.8079Z" fill="#040068"/>
</svg>
