<svg  viewBox="0 0 36 36" fill="none" xmlns="http://www.w3.org/2000/svg">
<path fill-rule="evenodd" clip-rule="evenodd" d="M26.8079 21.8112C26.7472 21.871 26.6751 21.9185 26.5956 21.9509C26.5162 21.9833 26.4311 22 26.3451 22C26.2591 22 26.1739 21.9833 26.0945 21.9509C26.0151 21.9185 25.9429 21.871 25.8822 21.8112L18.4998 14.5526L11.1175 21.8112C11.0567 21.8709 10.9845 21.9183 10.9051 21.9507C10.8257 21.983 10.7406 21.9997 10.6546 21.9997C10.5686 21.9997 10.4835 21.983 10.4041 21.9507C10.3247 21.9183 10.2525 21.8709 10.1917 21.8112C10.1309 21.7514 10.0827 21.6805 10.0498 21.6024C10.0169 21.5243 10 21.4407 10 21.3562C10 21.2717 10.0169 21.188 10.0498 21.1099C10.0827 21.0318 10.1309 20.9609 10.1917 20.9011L18.037 13.1888C18.0977 13.129 18.1698 13.0815 18.2493 13.0491C18.3287 13.0167 18.4138 13 18.4998 13C18.5858 13 18.671 13.0167 18.7504 13.0491C18.8298 13.0815 18.902 13.129 18.9627 13.1888L26.8079 20.9011C26.8688 20.9608 26.9171 21.0318 26.9501 21.1098C26.983 21.1879 27 21.2716 27 21.3562C27 21.4407 26.983 21.5244 26.9501 21.6025C26.9171 21.6806 26.8688 21.7515 26.8079 21.8112Z" fill="#040068"/>
</svg>
