<svg  viewBox="0 0 36 36" fill="none" xmlns="http://www.w3.org/2000/svg">
<path fill-rule="evenodd" clip-rule="evenodd" d="M10.1921 13.1888C10.2528 13.129 10.3249 13.0815 10.4044 13.0491C10.4838 13.0167 10.5689 13 10.6549 13C10.7409 13 10.8261 13.0167 10.9055 13.0491C10.9849 13.0815 11.0571 13.129 11.1178 13.1888L18.5002 20.4474L25.8825 13.1888C25.9433 13.1291 26.0155 13.0817 26.0949 13.0493C26.1743 13.017 26.2594 13.0003 26.3454 13.0003C26.4314 13.0003 26.5165 13.017 26.5959 13.0493C26.6753 13.0817 26.7475 13.1291 26.8083 13.1888C26.8691 13.2486 26.9173 13.3195 26.9502 13.3976C26.9831 13.4757 27 13.5593 27 13.6438C27 13.7283 26.9831 13.812 26.9502 13.8901C26.9173 13.9682 26.8691 14.0391 26.8083 14.0989L18.963 21.8112C18.9023 21.871 18.8302 21.9185 18.7507 21.9509C18.6713 21.9833 18.5862 22 18.5002 22C18.4142 22 18.329 21.9833 18.2496 21.9509C18.1702 21.9185 18.098 21.871 18.0373 21.8112L10.1921 14.0989C10.1312 14.0392 10.0829 13.9682 10.0499 13.8902C10.017 13.8121 10 13.7284 10 13.6438C10 13.5593 10.017 13.4756 10.0499 13.3975C10.0829 13.3194 10.1312 13.2485 10.1921 13.1888Z" fill="#040068"/>
</svg>
