<svg  viewBox="0 0 36 36" fill="none" xmlns="http://www.w3.org/2000/svg">
<path d="M18.3364 10.7064C18.3364 10.519 18.266 10.3394 18.1407 10.2069C18.0154 10.0744 17.8454 10 17.6682 10C17.491 10 17.321 10.0744 17.1957 10.2069C17.0704 10.3394 17 10.519 17 10.7064V18.4764C17 18.6009 17.0312 18.7232 17.0903 18.8309C17.1495 18.9386 17.2345 19.0278 17.3368 19.0896L22.0141 21.9151C22.1676 22.0027 22.3475 22.0235 22.5152 21.9729C22.683 21.9222 22.8254 21.8042 22.912 21.6441C22.9985 21.4839 23.0224 21.2944 22.9785 21.1158C22.9346 20.9373 22.8264 20.7841 22.677 20.6888L18.3364 18.0667V10.7064Z" fill="#040068"/>
<path d="M18 29C20.9174 29 23.7153 27.8411 25.7782 25.7782C27.8411 23.7153 29 20.9174 29 18C29 15.0826 27.8411 12.2847 25.7782 10.2218C23.7153 8.15893 20.9174 7 18 7C15.0826 7 12.2847 8.15893 10.2218 10.2218C8.15893 12.2847 7 15.0826 7 18C7 20.9174 8.15893 23.7153 10.2218 25.7782C12.2847 27.8411 15.0826 29 18 29ZM27.625 18C27.625 20.5527 26.6109 23.0009 24.8059 24.8059C23.0009 26.6109 20.5527 27.625 18 27.625C15.4473 27.625 12.9991 26.6109 11.1941 24.8059C9.38906 23.0009 8.375 20.5527 8.375 18C8.375 15.4473 9.38906 12.9991 11.1941 11.1941C12.9991 9.38906 15.4473 8.375 18 8.375C20.5527 8.375 23.0009 9.38906 24.8059 11.1941C26.6109 12.9991 27.625 15.4473 27.625 18Z" fill="#040068"/>
</svg>
