<svg  viewBox="0 0 36 36" fill="none" xmlns="http://www.w3.org/2000/svg">
<path d="M9.21967 10.2803C8.92678 9.98744 8.92678 9.51256 9.21967 9.21967C9.51256 8.92678 9.98744 8.92678 10.2803 9.21967L18 16.9393L25.7197 9.21967C26.0126 8.92678 26.4874 8.92678 26.7803 9.21967C27.0732 9.51256 27.0732 9.98744 26.7803 10.2803L19.0607 18L26.7803 25.7197C27.0732 26.0126 27.0732 26.4874 26.7803 26.7803C26.4874 27.0732 26.0126 27.0732 25.7197 26.7803L18 19.0607L10.2803 26.7803C9.98744 27.0732 9.51256 27.0732 9.21967 26.7803C8.92678 26.4874 8.92678 26.0126 9.21967 25.7197L16.9393 18L9.21967 10.2803Z" fill="#040068"/>
</svg>
