<svg  viewBox="0 0 36 36" fill="none" xmlns="http://www.w3.org/2000/svg">
<path d="M22.6634 9.16525C22.7157 9.11287 22.7778 9.07131 22.8461 9.04295C22.9144 9.0146 22.9877 9 23.0617 9C23.1357 9 23.2089 9.0146 23.2772 9.04295C23.3456 9.07131 23.4076 9.11287 23.4599 9.16525L26.8348 12.5401C26.8871 12.5923 26.9287 12.6544 26.957 12.7228C26.9854 12.7911 27 12.8643 27 12.9383C27 13.0123 26.9854 13.0856 26.957 13.1539C26.9287 13.2222 26.8871 13.2843 26.8348 13.3366L15.5852 24.5861C15.5313 24.6397 15.467 24.6818 15.3963 24.7098L9.7715 26.9597C9.66928 27.0006 9.5573 27.0107 9.44945 26.9885C9.34159 26.9664 9.2426 26.9131 9.16475 26.8353C9.08689 26.7574 9.0336 26.6584 9.01147 26.5506C8.98935 26.4427 8.99936 26.3307 9.04028 26.2285L11.2902 20.6037C11.3182 20.533 11.3603 20.4687 11.4139 20.4148L22.6634 9.16525ZM21.6071 11.8134L24.1866 14.3929L25.6412 12.9383L23.0617 10.3588L21.6071 11.8134ZM23.3913 15.1882L20.8118 12.6087L13.4996 19.9209V20.2505H14.0621C14.2112 20.2505 14.3543 20.3098 14.4598 20.4153C14.5653 20.5207 14.6245 20.6638 14.6245 20.813V21.3755H15.187C15.3362 21.3755 15.4793 21.4347 15.5847 21.5402C15.6902 21.6457 15.7495 21.7888 15.7495 21.9379V22.5004H16.0791L23.3913 15.1882ZM12.4106 21.0099L12.2914 21.1291L10.5725 25.4275L14.8709 23.7086L14.9901 23.5894C14.8828 23.5493 14.7903 23.4774 14.725 23.3833C14.6597 23.2892 14.6246 23.1774 14.6245 23.0629V22.5004H14.0621C13.9129 22.5004 13.7698 22.4412 13.6643 22.3357C13.5588 22.2302 13.4996 22.0871 13.4996 21.9379V21.3755H12.9371C12.8226 21.3754 12.7108 21.3403 12.6167 21.275C12.5226 21.2097 12.4507 21.1172 12.4106 21.0099Z" fill="#040068"/>
</svg>
