<svg  viewBox="0 0 36 36" fill="none" xmlns="http://www.w3.org/2000/svg">
<path d="M6 12C6 11.2044 6.31607 10.4413 6.87868 9.87868C7.44129 9.31607 8.20435 9 9 9H27C27.7956 9 28.5587 9.31607 29.1213 9.87868C29.6839 10.4413 30 11.2044 30 12V24C30 24.7956 29.6839 25.5587 29.1213 26.1213C28.5587 26.6839 27.7956 27 27 27H9C8.20435 27 7.44129 26.6839 6.87868 26.1213C6.31607 25.5587 6 24.7956 6 24V12ZM9 10.5C8.60218 10.5 8.22064 10.658 7.93934 10.9393C7.65804 11.2206 7.5 11.6022 7.5 12V12.3255L18 18.6255L28.5 12.3255V12C28.5 11.6022 28.342 11.2206 28.0607 10.9393C27.7794 10.658 27.3978 10.5 27 10.5H9ZM28.5 14.0745L21.438 18.312L28.5 22.6575V14.0745ZM28.449 24.3885L19.989 19.182L18 20.3745L16.011 19.182L7.551 24.387C7.63624 24.7062 7.82447 24.9883 8.08648 25.1896C8.34849 25.3908 8.66962 25.5 9 25.5H27C27.3302 25.5 27.6512 25.3911 27.9131 25.1902C28.1751 24.9892 28.3635 24.7074 28.449 24.3885ZM7.5 22.6575L14.562 18.312L7.5 14.0745V22.6575Z" fill="#040068"/>
</svg>
