<svg  viewBox="0 0 36 36" fill="none" xmlns="http://www.w3.org/2000/svg">
<path d="M23.3846 8H14.2308C12.7863 8 11.6154 9.11929 11.6154 10.5C10.1709 10.5 9 11.6193 9 13V25.5C9 26.8807 10.1709 28 11.6154 28H20.7692C22.2137 28 23.3846 26.8807 23.3846 25.5C24.8291 25.5 26 24.3807 26 23V10.5C26 9.11929 24.8291 8 23.3846 8ZM23.3846 24.25V13C23.3846 11.6193 22.2137 10.5 20.7692 10.5H12.9231C12.9231 9.80964 13.5086 9.25 14.2308 9.25H23.3846C24.1068 9.25 24.6923 9.80964 24.6923 10.5V23C24.6923 23.6904 24.1068 24.25 23.3846 24.25ZM10.3077 13C10.3077 12.3096 10.8932 11.75 11.6154 11.75H20.7692C21.4914 11.75 22.0769 12.3096 22.0769 13V25.5C22.0769 26.1904 21.4914 26.75 20.7692 26.75H11.6154C10.8932 26.75 10.3077 26.1904 10.3077 25.5V13Z" fill="#040068"/>
</svg>
