<svg viewBox="0 0 36 36" fill="none" xmlns="http://www.w3.org/2000/svg">
<path fill-rule="evenodd" clip-rule="evenodd" d="M21.2143 9C21.5693 9 21.8571 9.28782 21.8571 9.64286V14.7857C21.8571 15.1408 21.5693 15.4286 21.2143 15.4286C20.8592 15.4286 20.5714 15.1408 20.5714 14.7857V12.8571H9.64286C9.28782 12.8571 9 12.5693 9 12.2143C9 11.8592 9.28782 11.5714 9.64286 11.5714H20.5714V9.64286C20.5714 9.28782 20.8592 9 21.2143 9ZM23.1429 12.2143C23.1429 11.8592 23.4307 11.5714 23.7857 11.5714H26.3571C26.7122 11.5714 27 11.8592 27 12.2143C27 12.5693 26.7122 12.8571 26.3571 12.8571H23.7857C23.4307 12.8571 23.1429 12.5693 23.1429 12.2143ZM14.7857 14.7857C15.1408 14.7857 15.4286 15.0735 15.4286 15.4286V17.3571H26.3571C26.7122 17.3571 27 17.645 27 18C27 18.355 26.7122 18.6429 26.3571 18.6429H15.4286V20.5714C15.4286 20.9265 15.1408 21.2143 14.7857 21.2143C14.4307 21.2143 14.1429 20.9265 14.1429 20.5714V15.4286C14.1429 15.0735 14.4307 14.7857 14.7857 14.7857ZM9 18C9 17.645 9.28782 17.3571 9.64286 17.3571H12.2143C12.5693 17.3571 12.8571 17.645 12.8571 18C12.8571 18.355 12.5693 18.6429 12.2143 18.6429H9.64286C9.28782 18.6429 9 18.355 9 18ZM21.2143 20.5714C21.5693 20.5714 21.8571 20.8592 21.8571 21.2143V26.3571C21.8571 26.7122 21.5693 27 21.2143 27C20.8592 27 20.5714 26.7122 20.5714 26.3571V24.4286H9.64286C9.28782 24.4286 9 24.1408 9 23.7857C9 23.4307 9.28782 23.1429 9.64286 23.1429H20.5714V21.2143C20.5714 20.8592 20.8592 20.5714 21.2143 20.5714ZM23.1429 23.7857C23.1429 23.4307 23.4307 23.1429 23.7857 23.1429H26.3571C26.7122 23.1429 27 23.4307 27 23.7857C27 24.1408 26.7122 24.4286 26.3571 24.4286H23.7857C23.4307 24.4286 23.1429 24.1408 23.1429 23.7857Z" fill="#040068"/>
</svg>
