<svg  viewBox="0 0 36 36" fill="none" xmlns="http://www.w3.org/2000/svg">
<path d="M18 11.3333C16.2319 11.3333 14.5362 12.0357 13.286 13.286C12.0357 14.5362 11.3333 16.2319 11.3333 18V19.3333H12.6667C13.0203 19.3333 13.3594 19.4738 13.6095 19.7239C13.8595 19.9739 14 20.313 14 20.6667V24.6667C14 25.0203 13.8595 25.3594 13.6095 25.6095C13.3594 25.8595 13.0203 26 12.6667 26H11.3333C10.9797 26 10.6406 25.8595 10.3905 25.6095C10.1405 25.3594 10 25.0203 10 24.6667V18C10 16.9494 10.2069 15.9091 10.609 14.9385C11.011 13.9679 11.6003 13.086 12.3431 12.3431C13.086 11.6003 13.9679 11.011 14.9385 10.609C15.9091 10.2069 16.9494 10 18 10C19.0506 10 20.0909 10.2069 21.0615 10.609C22.0321 11.011 22.914 11.6003 23.6569 12.3431C24.3997 13.086 24.989 13.9679 25.391 14.9385C25.7931 15.9091 26 16.9494 26 18V24.6667C26 25.0203 25.8595 25.3594 25.6095 25.6095C25.3594 25.8595 25.0203 26 24.6667 26H23.3333C22.9797 26 22.6406 25.8595 22.3905 25.6095C22.1405 25.3594 22 25.0203 22 24.6667V20.6667C22 20.313 22.1405 19.9739 22.3905 19.7239C22.6406 19.4738 22.9797 19.3333 23.3333 19.3333H24.6667V18C24.6667 16.2319 23.9643 14.5362 22.714 13.286C21.4638 12.0357 19.7681 11.3333 18 11.3333Z" fill="#040068"/>
</svg>
