<svg  viewBox="0 0 36 36" fill="none" xmlns="http://www.w3.org/2000/svg">
<path d="M25.3285 23C27.6932 20.9153 29 18.5532 29 18.5532C29 18.5532 24.8295 11 17.8786 11C16.5435 11.0045 15.2234 11.2794 14 11.8075L15.0704 12.8663C15.9705 12.5424 16.9207 12.3756 17.8786 12.3733C20.8258 12.3733 23.2711 13.9773 25.063 15.7475C25.9254 16.6041 26.6985 17.544 27.3707 18.5532C27.2901 18.6727 27.2011 18.8045 27.0996 18.9487C26.6339 19.6079 25.9458 20.4868 25.063 21.3589C24.8336 21.5855 24.5945 21.8093 24.3443 22.0263L25.3285 23Z" fill="#040068"/>
<path d="M22.7083 20.0119C23.0269 19.2098 23.0859 18.3428 22.8784 17.5117C22.671 16.6806 22.2055 15.9197 21.5363 15.3173C20.8671 14.715 20.0215 14.2961 19.0981 14.1094C18.1747 13.9227 17.2113 13.9758 16.3202 14.2625L17.4953 15.3201C18.044 15.2495 18.6035 15.2948 19.1294 15.4525C19.6553 15.6102 20.1331 15.8759 20.5251 16.2287C20.9171 16.5815 21.2124 17.0115 21.3876 17.4848C21.5628 17.9582 21.6131 18.4617 21.5346 18.9556L22.7083 20.0119ZM18.5062 21.6811L19.6798 22.7375C18.7887 23.0242 17.8253 23.0773 16.9019 22.8906C15.9785 22.7039 15.1329 22.285 14.4637 21.6827C13.7945 21.0803 13.329 20.3194 13.1216 19.4883C12.9141 18.6572 12.9731 17.7902 13.2917 16.9881L14.4668 18.0457C14.3883 18.5396 14.4386 19.0431 14.6138 19.5164C14.7891 19.9897 15.0844 20.4198 15.4763 20.7726C15.8683 21.1254 16.3462 21.3911 16.8721 21.5488C17.398 21.7065 17.9574 21.7518 18.5062 21.6811Z" fill="#040068"/>
<path d="M11.4343 15.1155C11.196 15.3296 10.967 15.5463 10.7486 15.767C9.9275 16.6013 9.19137 17.5169 8.55134 18.5L8.80946 18.8853C9.25289 19.5274 9.90811 20.3835 10.7486 21.233C12.4549 22.9573 14.7845 24.5198 17.5894 24.5198C18.5371 24.5198 19.4293 24.3419 20.2632 24.0382L21.2824 25.071C20.1175 25.5854 18.8606 25.8531 17.5894 25.8576C10.971 25.8576 7 18.5 7 18.5C7 18.5 8.24293 16.1977 10.4958 14.1684L11.433 15.1169L11.4343 15.1155ZM25.0628 27L9.17877 10.9471L10.1159 10L26 26.0529L25.0628 27Z" fill="#040068"/>
</svg>
