<svg  viewBox="0 0 36 36" fill="none" xmlns="http://www.w3.org/2000/svg">
<path d="M17.5 26.6875C15.0633 26.6875 12.7264 25.7195 11.0035 23.9965C9.28047 22.2736 8.3125 19.9367 8.3125 17.5C8.3125 15.0633 9.28047 12.7264 11.0035 11.0035C12.7264 9.28047 15.0633 8.3125 17.5 8.3125C19.9367 8.3125 22.2736 9.28047 23.9965 11.0035C25.7195 12.7264 26.6875 15.0633 26.6875 17.5C26.6875 19.9367 25.7195 22.2736 23.9965 23.9965C22.2736 25.7195 19.9367 26.6875 17.5 26.6875ZM17.5 28C20.2848 28 22.9555 26.8938 24.9246 24.9246C26.8938 22.9555 28 20.2848 28 17.5C28 14.7152 26.8938 12.0445 24.9246 10.0754C22.9555 8.10625 20.2848 7 17.5 7C14.7152 7 12.0445 8.10625 10.0754 10.0754C8.10625 12.0445 7 14.7152 7 17.5C7 20.2848 8.10625 22.9555 10.0754 24.9246C12.0445 26.8938 14.7152 28 17.5 28Z" fill="#040068"/>
<path d="M18.916 15.0748L16.1679 15.4535L16.0695 15.9549L16.6096 16.0644C16.9624 16.1568 17.032 16.2967 16.9552 16.6833L16.0695 21.2595C15.8367 22.4431 16.1955 23 17.0392 23C17.6932 23 18.4528 22.6675 18.7972 22.2109L18.9028 21.662C18.6628 21.8942 18.3124 21.9866 18.0796 21.9866C17.7496 21.9866 17.6296 21.7319 17.7148 21.2833L18.916 15.0748ZM19 12.3196C19 12.6695 18.8736 13.0052 18.6485 13.2526C18.4235 13.5001 18.1182 13.6391 17.8 13.6391C17.4817 13.6391 17.1765 13.5001 16.9514 13.2526C16.7264 13.0052 16.6 12.6695 16.6 12.3196C16.6 11.9696 16.7264 11.634 16.9514 11.3865C17.1765 11.139 17.4817 11 17.8 11C18.1182 11 18.4235 11.139 18.6485 11.3865C18.8736 11.634 19 11.9696 19 12.3196Z" fill="#040068"/>
</svg>
