<svg xmlns="http://www.w3.org/2000/svg" viewBox="0 0 50 50" class="bh cw cg cx bl cy bm cz da" preserveAspectRatio="xMidYMid meet">
  <g transform="translate(0, 7)">
    <path fill="#040068" d="M7.6 0h22C32.03 0 34 2.015 34 4.5v27c0 2.485-1.97 4.5-4.4 4.5h-22c-2.43 0-4.4-2.015-4.4-4.5v-2.25h2.2v2.25c0 1.243.985 2.25 2.2 2.25h22c1.215 0 2.2-1.007 2.2-2.25v-27c0-1.243-.985-2.25-2.2-2.25h-22c-1.215 0-2.2 1.007-2.2 2.25v2.25H3.2V4.5C3.2 2.015 5.17 0 7.6 0Z"></path>
    <path fill="#040068" d="M3.2 11.25v-1.125C3.2 9.504 3.692 9 4.3 9c.608 0 1.1.504 1.1 1.125v1.125h1.1c.608 0 1.1.504 1.1 1.125S7.108 13.5 6.5 13.5H2.1c-.608 0-1.1-.504-1.1-1.125s.492-1.125 1.1-1.125h1.1ZM3.2 18v-1.125c0-.621.492-1.125 1.1-1.125.608 0 1.1.504 1.1 1.125V18h1.1c.608 0 1.1.504 1.1 1.125s-.492 1.125-1.1 1.125H2.1c-.608 0-1.1-.504-1.1-1.125S1.492 18 2.1 18h1.1ZM3.2 24.75v-1.125c0-.621.492-1.125 1.1-1.125.608 0 1.1.504 1.1 1.125v1.125h1.1c.608 0 1.1.504 1.1 1.125S7.108 27 6.5 27H2.1c-.608 0-1.1-.504-1.1-1.125s.492-1.125 1.1-1.125h1.1Z"></path>
  </g>
</svg>
