<svg  viewBox="0 0 36 36" fill="none" xmlns="http://www.w3.org/2000/svg">
<path d="M18 8.375C18.9472 8.375 19.8556 8.73716 20.5254 9.38182C21.1952 10.0265 21.5714 10.9008 21.5714 11.8125V12.5H14.4286V11.8125C14.4286 10.9008 14.8048 10.0265 15.4746 9.38182C16.1444 8.73716 17.0528 8.375 18 8.375ZM23 12.5V11.8125C23 10.5361 22.4732 9.31207 21.5355 8.40955C20.5979 7.50703 19.3261 7 18 7C16.6739 7 15.4021 7.50703 14.4645 8.40955C13.5268 9.31207 13 10.5361 13 11.8125V12.5H8V26.25C8 26.9793 8.30102 27.6788 8.83684 28.1945C9.37266 28.7103 10.0994 29 10.8571 29H25.1429C25.9006 29 26.6273 28.7103 27.1632 28.1945C27.699 27.6788 28 26.9793 28 26.25V12.5H23ZM9.42857 13.875H26.5714V26.25C26.5714 26.6147 26.4209 26.9644 26.153 27.2223C25.8851 27.4801 25.5217 27.625 25.1429 27.625H10.8571C10.4783 27.625 10.1149 27.4801 9.84699 27.2223C9.57908 26.9644 9.42857 26.6147 9.42857 26.25V13.875Z" fill="#040068"/>
</svg>
