<svg  viewBox="0 0 36 36" fill="none" xmlns="http://www.w3.org/2000/svg">
<path d="M20 24.0385C20 24.5587 19.7893 25.0576 19.4142 25.4255C19.0391 25.7933 18.5304 26 18 26C17.4696 26 16.9609 25.7933 16.5858 25.4255C16.2107 25.0576 16 24.5587 16 24.0385C16 23.5182 16.2107 23.0193 16.5858 22.6514C16.9609 22.2836 17.4696 22.0769 18 22.0769C18.5304 22.0769 19.0391 22.2836 19.4142 22.6514C19.7893 23.0193 20 23.5182 20 24.0385ZM20 17.5C20 18.0202 19.7893 18.5192 19.4142 18.887C19.0391 19.2549 18.5304 19.4615 18 19.4615C17.4696 19.4615 16.9609 19.2549 16.5858 18.887C16.2107 18.5192 16 18.0202 16 17.5C16 16.9798 16.2107 16.4808 16.5858 16.113C16.9609 15.7451 17.4696 15.5385 18 15.5385C18.5304 15.5385 19.0391 15.7451 19.4142 16.113C19.7893 16.4808 20 16.9798 20 17.5ZM20 10.9615C20 11.4818 19.7893 11.9807 19.4142 12.3486C19.0391 12.7164 18.5304 12.9231 18 12.9231C17.4696 12.9231 16.9609 12.7164 16.5858 12.3486C16.2107 11.9807 16 11.4818 16 10.9615C16 10.4413 16.2107 9.94238 16.5858 9.57452C16.9609 9.20666 17.4696 9 18 9C18.5304 9 19.0391 9.20666 19.4142 9.57452C19.7893 9.94238 20 10.4413 20 10.9615Z" fill="#040068"/>
</svg>
