<svg  viewBox="0 0 36 36" fill="none" xmlns="http://www.w3.org/2000/svg">
<path d="M26.25 8.36957C27.0094 8.36957 27.625 8.98274 27.625 9.73913V20.6957C27.625 21.452 27.0094 22.0652 26.25 22.0652H22.8125C21.9469 22.0652 21.1319 22.4711 20.6125 23.1609L18 26.6304L15.3875 23.1609C14.8682 22.4711 14.0531 22.0652 13.1875 22.0652H9.75C8.99061 22.0652 8.375 21.452 8.375 20.6957V9.73913C8.375 8.98274 8.99061 8.36957 9.75 8.36957H26.25ZM9.75 7C8.23122 7 7 8.22635 7 9.73913V20.6957C7 22.2084 8.23122 23.4348 9.75 23.4348H13.1875C13.6203 23.4348 14.0278 23.6377 14.2875 23.9826L16.9 27.4522C17.45 28.1826 18.55 28.1826 19.1 27.4522L21.7125 23.9826C21.9722 23.6377 22.3797 23.4348 22.8125 23.4348H26.25C27.7688 23.4348 29 22.2084 29 20.6957V9.73913C29 8.22635 27.7688 7 26.25 7H9.75Z" fill="#040068"/>
<path d="M11.125 11.7935C11.125 11.4153 11.4328 11.1087 11.8125 11.1087H24.1875C24.5672 11.1087 24.875 11.4153 24.875 11.7935C24.875 12.1717 24.5672 12.4783 24.1875 12.4783H11.8125C11.4328 12.4783 11.125 12.1717 11.125 11.7935ZM11.125 15.2174C11.125 14.8392 11.4328 14.5326 11.8125 14.5326H24.1875C24.5672 14.5326 24.875 14.8392 24.875 15.2174C24.875 15.5956 24.5672 15.9022 24.1875 15.9022H11.8125C11.4328 15.9022 11.125 15.5956 11.125 15.2174ZM11.125 18.6413C11.125 18.2631 11.4328 17.9565 11.8125 17.9565H18.6875C19.0672 17.9565 19.375 18.2631 19.375 18.6413C19.375 19.0195 19.0672 19.3261 18.6875 19.3261H11.8125C11.4328 19.3261 11.125 19.0195 11.125 18.6413Z" fill="#040068"/>
</svg>
