<svg  viewBox="0 0 36 36" fill="none" xmlns="http://www.w3.org/2000/svg">
<path d="M18 18C19.1935 18 20.3381 17.5259 21.182 16.682C22.0259 15.8381 22.5 14.6935 22.5 13.5C22.5 12.3065 22.0259 11.1619 21.182 10.318C20.3381 9.47411 19.1935 9 18 9C16.8065 9 15.6619 9.47411 14.818 10.318C13.9741 11.1619 13.5 12.3065 13.5 13.5C13.5 14.6935 13.9741 15.8381 14.818 16.682C15.6619 17.5259 16.8065 18 18 18ZM21 13.5C21 14.2956 20.6839 15.0587 20.1213 15.6213C19.5587 16.1839 18.7956 16.5 18 16.5C17.2044 16.5 16.4413 16.1839 15.8787 15.6213C15.3161 15.0587 15 14.2956 15 13.5C15 12.7044 15.3161 11.9413 15.8787 11.3787C16.4413 10.8161 17.2044 10.5 18 10.5C18.7956 10.5 19.5587 10.8161 20.1213 11.3787C20.6839 11.9413 21 12.7044 21 13.5ZM27 25.5C27 27 25.5 27 25.5 27H10.5C10.5 27 9 27 9 25.5C9 24 10.5 19.5 18 19.5C25.5 19.5 27 24 27 25.5ZM25.5 25.494C25.4985 25.125 25.269 24.015 24.252 22.998C23.274 22.02 21.4335 21 18 21C14.565 21 12.726 22.02 11.748 22.998C10.731 24.015 10.503 25.125 10.5 25.494H25.5Z" fill="#040068"/>
</svg>
