<svg  viewBox="0 0 36 36" fill="none" xmlns="http://www.w3.org/2000/svg">
<path d="M22 15C22 16.0609 21.5786 17.0783 20.8284 17.8284C20.0783 18.5786 19.0609 19 18 19C16.9391 19 15.9217 18.5786 15.1716 17.8284C14.4214 17.0783 14 16.0609 14 15C14 13.9391 14.4214 12.9217 15.1716 12.1716C15.9217 11.4214 16.9391 11 18 11C19.0609 11 20.0783 11.4214 20.8284 12.1716C21.5786 12.9217 22 13.9391 22 15Z" fill="#040068"/>
<path fill-rule="evenodd" clip-rule="evenodd" d="M7 18C7 15.0826 8.15893 12.2847 10.2218 10.2218C12.2847 8.15893 15.0826 7 18 7C20.9174 7 23.7153 8.15893 25.7782 10.2218C27.8411 12.2847 29 15.0826 29 18C29 20.9174 27.8411 23.7153 25.7782 25.7782C23.7153 27.8411 20.9174 29 18 29C15.0826 29 12.2847 27.8411 10.2218 25.7782C8.15893 23.7153 7 20.9174 7 18ZM18 8.375C16.1874 8.3751 14.4118 8.887 12.8773 9.85179C11.3429 10.8166 10.112 12.195 9.32645 13.8285C8.54089 15.462 8.23253 17.2841 8.43687 19.0851C8.64121 20.8861 9.34995 22.5928 10.4815 24.0087C11.4577 22.4358 13.6069 20.75 18 20.75C22.3931 20.75 24.5409 22.4344 25.5185 24.0087C26.6501 22.5928 27.3588 20.8861 27.5631 19.0851C27.7675 17.2841 27.4591 15.462 26.6735 13.8285C25.888 12.195 24.6571 10.8166 23.1227 9.85179C21.5882 8.887 19.8126 8.3751 18 8.375Z" fill="#040068"/>
</svg>
