<svg  viewBox="0 0 36 36" fill="none" xmlns="http://www.w3.org/2000/svg">
<path d="M8.625 20C8.79076 20 8.94973 20.0738 9.06694 20.205C9.18415 20.3363 9.25 20.5143 9.25 20.7V24.2C9.25 24.5713 9.3817 24.9274 9.61612 25.19C9.85054 25.4525 10.1685 25.6 10.5 25.6H25.5C25.8315 25.6 26.1495 25.4525 26.3839 25.19C26.6183 24.9274 26.75 24.5713 26.75 24.2V20.7C26.75 20.5143 26.8158 20.3363 26.9331 20.205C27.0503 20.0738 27.2092 20 27.375 20C27.5408 20 27.6997 20.0738 27.8169 20.205C27.9342 20.3363 28 20.5143 28 20.7V24.2C28 24.9426 27.7366 25.6548 27.2678 26.1799C26.7989 26.705 26.163 27 25.5 27H10.5C9.83696 27 9.20107 26.705 8.73223 26.1799C8.26339 25.6548 8 24.9426 8 24.2V20.7C8 20.5143 8.06585 20.3363 8.18306 20.205C8.30027 20.0738 8.45924 20 8.625 20Z" fill="#040068"/>
<path d="M17.5955 22.8131C17.6486 22.8723 17.7116 22.9193 17.781 22.9514C17.8504 22.9835 17.9249 23 18 23C18.0751 23 18.1496 22.9835 18.219 22.9514C18.2884 22.9193 18.3514 22.8723 18.4045 22.8131L21.8325 18.9952C21.9397 18.8757 22 18.7137 22 18.5447C22 18.3757 21.9397 18.2137 21.8325 18.0942C21.7252 17.9747 21.5797 17.9076 21.428 17.9076C21.2762 17.9076 21.1307 17.9747 21.0235 18.0942L18.5713 20.8265V9.63631C18.5713 9.46755 18.5111 9.3057 18.404 9.18637C18.2968 9.06704 18.1515 9 18 9C17.8485 9 17.7032 9.06704 17.596 9.18637C17.4889 9.3057 17.4287 9.46755 17.4287 9.63631V20.8265L14.9765 18.0942C14.8693 17.9747 14.7238 17.9076 14.572 17.9076C14.4203 17.9076 14.2748 17.9747 14.1675 18.0942C14.0603 18.2137 14 18.3757 14 18.5447C14 18.7137 14.0603 18.8757 14.1675 18.9952L17.5955 22.8131Z" fill="#040068"/>
</svg>
