<svg  viewBox="0 0 36 36" fill="none" xmlns="http://www.w3.org/2000/svg">
<path d="M22.6781 20.929C23.8884 19.2772 24.4305 17.2292 24.1959 15.1949C23.9613 13.1605 22.9673 11.2897 21.4128 9.9568C19.8583 8.6239 17.8579 7.92718 15.8119 8.00603C13.7658 8.08488 11.825 8.93348 10.3776 10.3821C8.93028 11.8306 8.08318 13.7724 8.00581 15.8188C7.92843 17.8652 8.62649 19.8654 9.96031 21.4191C11.2941 22.9729 13.1654 23.9657 15.1996 24.1988C17.2339 24.432 19.2812 23.8884 20.9319 22.6767H20.9306C20.9681 22.7267 21.0081 22.7742 21.0531 22.8205L25.8654 27.6335C26.0998 27.868 26.4178 27.9999 26.7493 28C27.0809 28.0001 27.399 27.8685 27.6335 27.6341C27.8681 27.3997 27.9999 27.0817 28 26.7501C28.0001 26.4184 27.8685 26.1004 27.6341 25.8658L22.8218 21.0528C22.7771 21.0075 22.7291 20.9657 22.6781 20.9278V20.929ZM23.0006 16.1235C23.0006 17.0265 22.8227 17.9205 22.4773 18.7547C22.1318 19.5889 21.6254 20.3469 20.987 20.9854C20.3486 21.6239 19.5907 22.1303 18.7567 22.4759C17.9226 22.8214 17.0286 22.9992 16.1258 22.9992C15.223 22.9992 14.329 22.8214 13.495 22.4759C12.6609 22.1303 11.903 21.6239 11.2646 20.9854C10.6263 20.3469 10.1199 19.5889 9.77438 18.7547C9.4289 17.9205 9.25108 17.0265 9.25108 16.1235C9.25108 14.3 9.97538 12.5511 11.2646 11.2617C12.5539 9.97222 14.3025 9.24781 16.1258 9.24781C17.9491 9.24781 19.6977 9.97222 20.987 11.2617C22.2763 12.5511 23.0006 14.3 23.0006 16.1235Z" fill="#040068"/>
</svg>
