<svg  viewBox="0 0 36 36" fill="none" xmlns="http://www.w3.org/2000/svg">
<path d="M24.8751 9.25022C24.3778 9.25022 23.9009 9.44773 23.5492 9.79932C23.1976 10.1509 23.0001 10.6277 23.0001 11.125C23.0001 11.6222 23.1976 12.099 23.5492 12.4506C23.9009 12.8022 24.3778 12.9997 24.8751 12.9997C25.3723 12.9997 25.8492 12.8022 26.2009 12.4506C26.5525 12.099 26.75 11.6222 26.75 11.125C26.75 10.6277 26.5525 10.1509 26.2009 9.79932C25.8492 9.44773 25.3723 9.25022 24.8751 9.25022ZM21.7501 11.125C21.75 10.3918 22.0077 9.68205 22.4782 9.11975C22.9486 8.55745 23.6018 8.17845 24.3235 8.04906C25.0452 7.91967 25.7894 8.04813 26.4259 8.41196C27.0625 8.7758 27.5508 9.35184 27.8054 10.0393C28.0601 10.7268 28.0649 11.4819 27.819 12.1725C27.5731 12.8632 27.0921 13.4454 26.4603 13.8173C25.8284 14.1891 25.0859 14.327 24.3626 14.2068C23.6394 14.0866 22.9814 13.716 22.5038 13.1597L14.1065 17.0591C14.2995 17.6708 14.2995 18.3271 14.1065 18.9389L22.5038 22.8383C23.0086 22.2513 23.7134 21.8726 24.4816 21.7755C25.2497 21.6785 26.0265 21.87 26.6615 22.313C27.2965 22.756 27.7443 23.4189 27.9183 24.1733C28.0923 24.9276 27.98 25.7197 27.6032 26.396C27.2264 27.0723 26.612 27.5847 25.8789 27.8338C25.1458 28.0829 24.3463 28.0511 23.6354 27.7444C22.9245 27.4377 22.3528 26.8781 22.031 26.1739C21.7092 25.4698 21.6604 24.6713 21.8939 23.9332L13.4965 20.0337C13.0808 20.5181 12.5267 20.8636 11.9087 21.0237C11.2908 21.1838 10.6386 21.1508 10.04 20.9292C9.44132 20.7076 8.92491 20.308 8.56021 19.7841C8.1955 19.2602 8 18.6373 8 17.999C8 17.3607 8.1955 16.7377 8.56021 16.2139C8.92491 15.69 9.44132 15.2904 10.04 15.0688C10.6386 14.8472 11.2908 14.8142 11.9087 14.9743C12.5267 15.1344 13.0808 15.4799 13.4965 15.9643L21.8939 12.0648C21.7983 11.7607 21.7498 11.4437 21.7501 11.125ZM11.1253 16.1243C10.628 16.1243 10.1511 16.3218 9.79948 16.6734C9.44785 17.0249 9.25031 17.5018 9.25031 17.999C9.25031 18.4962 9.44785 18.973 9.79948 19.3246C10.1511 19.6762 10.628 19.8737 11.1253 19.8737C11.6226 19.8737 12.0995 19.6762 12.4511 19.3246C12.8027 18.973 13.0002 18.4962 13.0002 17.999C13.0002 17.5018 12.8027 17.0249 12.4511 16.6734C12.0995 16.3218 11.6226 16.1243 11.1253 16.1243ZM24.8751 22.9983C24.3778 22.9983 23.9009 23.1958 23.5492 23.5474C23.1976 23.899 23.0001 24.3758 23.0001 24.873C23.0001 25.3702 23.1976 25.8471 23.5492 26.1987C23.9009 26.5502 24.3778 26.7478 24.8751 26.7478C25.3723 26.7478 25.8492 26.5502 26.2009 26.1987C26.5525 25.8471 26.75 25.3702 26.75 24.873C26.75 24.3758 26.5525 23.899 26.2009 23.5474C25.8492 23.1958 25.3723 22.9983 24.8751 22.9983Z" fill="#040068"/>
</svg>
