<svg  viewBox="0 0 36 36" fill="none" xmlns="http://www.w3.org/2000/svg">
<path d="M29 18C29 18 24.875 10 18 10C11.125 10 7 18 7 18C7 18 11.125 26 18 26C24.875 26 29 18 29 18ZM8.61287 18C9.27771 16.9311 10.0424 15.9355 10.8954 15.0284C12.665 13.1535 15.085 11.4545 18 11.4545C20.915 11.4545 23.3336 13.1535 25.106 15.0284C25.959 15.9355 26.7237 16.9311 27.3885 18C27.3088 18.1265 27.2208 18.2662 27.1204 18.4189C26.6597 19.1171 25.9791 20.048 25.106 20.9716C23.3336 22.8465 20.9136 24.5455 18 24.5455C15.085 24.5455 12.6664 22.8465 10.894 20.9716C10.041 20.0645 9.27634 19.0689 8.6115 18H8.61287Z" fill="#040068"/>
<path d="M18 14.4286C17.0528 14.4286 16.1444 14.8048 15.4746 15.4746C14.8048 16.1444 14.4286 17.0528 14.4286 18C14.4286 18.9472 14.8048 19.8556 15.4746 20.5254C16.1444 21.1952 17.0528 21.5714 18 21.5714C18.9472 21.5714 19.8556 21.1952 20.5254 20.5254C21.1952 19.8556 21.5714 18.9472 21.5714 18C21.5714 17.0528 21.1952 16.1444 20.5254 15.4746C19.8556 14.8048 18.9472 14.4286 18 14.4286ZM13 18C13 16.6739 13.5268 15.4021 14.4645 14.4645C15.4021 13.5268 16.6739 13 18 13C19.3261 13 20.5979 13.5268 21.5355 14.4645C22.4732 15.4021 23 16.6739 23 18C23 19.3261 22.4732 20.5979 21.5355 21.5355C20.5979 22.4732 19.3261 23 18 23C16.6739 23 15.4021 22.4732 14.4645 21.5355C13.5268 20.5979 13 19.3261 13 18Z" fill="#040068"/>
</svg>
