<svg  viewBox="0 0 36 36" fill="none" xmlns="http://www.w3.org/2000/svg">
<path fill-rule="evenodd" clip-rule="evenodd" d="M15.1489 26.8111C15.0901 26.871 15.0202 26.9185 14.9433 26.9509C14.8663 26.9833 14.7839 27 14.7006 27C14.6173 27 14.5348 26.9833 14.4578 26.9509C14.3809 26.9185 14.311 26.871 14.2522 26.8111L9.18573 21.6686C9.06681 21.5479 9 21.3842 9 21.2135C9 21.0428 9.06681 20.8791 9.18573 20.7584C9.30464 20.6377 9.46593 20.5699 9.63411 20.5699C9.80228 20.5699 9.96357 20.6377 10.0825 20.7584L14.0673 24.8043V12.2141C14.0673 11.3617 14.4009 10.5441 14.9947 9.94138C15.5886 9.33863 16.394 9 17.2338 9H27.3667C27.5347 9 27.6957 9.06773 27.8145 9.18828C27.9333 9.30883 28 9.47233 28 9.64282C28 9.8133 27.9333 9.9768 27.8145 10.0974C27.6957 10.2179 27.5347 10.2856 27.3667 10.2856H17.2338C16.7299 10.2856 16.2466 10.4888 15.8903 10.8505C15.534 11.2121 15.3339 11.7026 15.3339 12.2141V24.8043L19.3186 20.7584C19.4376 20.6377 19.5988 20.5699 19.767 20.5699C19.9352 20.5699 20.0965 20.6377 20.2154 20.7584C20.3343 20.8791 20.4011 21.0428 20.4011 21.2135C20.4011 21.3842 20.3343 21.5479 20.2154 21.6686L15.1489 26.8111Z" fill="#040068"/>
</svg>
