<svg  viewBox="0 0 36 36" fill="none" xmlns="http://www.w3.org/2000/svg">
<path d="M10.9655 26.1818C10.9655 26.6337 10.595 27 10.1379 27C9.68087 27 9.31034 26.6337 9.31034 26.1818L9.31034 11.7935L7.41278 13.6695C7.08959 13.989 6.56559 13.989 6.24239 13.6695C5.9192 13.3499 5.9192 12.8319 6.24239 12.5124L9.55137 9.241L9.56364 9.22906C9.64042 9.15585 9.72797 9.10019 9.82114 9.06208C9.91872 9.02208 10.0257 9 10.1379 9C10.2501 9 10.3571 9.02208 10.4547 9.06208C10.5523 9.10201 10.6438 9.1612 10.7231 9.23964L14.0335 12.5124C14.3567 12.8319 14.3567 13.3499 14.0335 13.6695C13.7103 13.989 13.1863 13.989 12.8631 13.6695L10.9655 11.7934L10.9655 26.1818Z" fill="#040068"/>
<path d="M16.7586 11.4545C16.7586 11.0027 17.1291 10.6364 17.5862 10.6364H29.1724C29.6295 10.6364 30 11.0027 30 11.4545C30 11.9064 29.6295 12.2727 29.1724 12.2727H17.5862C17.1291 12.2727 16.7586 11.9064 16.7586 11.4545Z" fill="#040068"/>
<path d="M17.5862 15.5455C17.1291 15.5455 16.7586 15.9118 16.7586 16.3636C16.7586 16.8155 17.1291 17.1818 17.5862 17.1818H25.8621C26.3191 17.1818 26.6897 16.8155 26.6897 16.3636C26.6897 15.9118 26.3191 15.5455 25.8621 15.5455H17.5862Z" fill="#040068"/>
<path d="M17.5862 20.4545C17.1291 20.4545 16.7586 20.8209 16.7586 21.2727C16.7586 21.7246 17.1291 22.0909 17.5862 22.0909H22.5517C23.0088 22.0909 23.3793 21.7246 23.3793 21.2727C23.3793 20.8209 23.0088 20.4545 22.5517 20.4545H17.5862Z" fill="#040068"/>
<path d="M17.5862 25.3636C17.1291 25.3636 16.7586 25.7299 16.7586 26.1818C16.7586 26.6337 17.1291 27 17.5862 27H19.2414C19.6984 27 20.069 26.6337 20.069 26.1818C20.069 25.7299 19.6984 25.3636 19.2414 25.3636H17.5862Z" fill="#040068"/>
</svg>
