<svg  viewBox="0 0 36 36" fill="none" xmlns="http://www.w3.org/2000/svg">
<path d="M11.5808 26.1767C11.4833 26.7391 12.0307 27.1786 12.5132 26.9278L18.0006 24.0704L23.4868 26.9278C23.9693 27.1786 24.5168 26.7391 24.4193 26.178L23.3818 20.1871L27.7842 15.9365C28.1967 15.5388 27.9842 14.8118 27.4317 14.7333L21.3093 13.8517L18.5794 8.37129C18.5274 8.26019 18.4453 8.16633 18.3428 8.10061C18.2402 8.03489 18.1214 8 18 8C17.8787 8 17.7598 8.03489 17.6573 8.10061C17.5547 8.16633 17.4727 8.26019 17.4206 8.37129L14.6907 13.853L8.56831 14.7345C8.01707 14.8131 7.80332 15.5401 8.21456 15.9378L12.6182 20.1884L11.5808 26.1793V26.1767ZM17.7119 22.6721L13.1045 25.071L13.972 20.0592C13.9923 19.9438 13.9843 19.8252 13.9488 19.7136C13.9133 19.6021 13.8513 19.5011 13.7682 19.4196L10.1358 15.9112L15.2007 15.1816C15.3056 15.1656 15.405 15.124 15.4906 15.0605C15.5762 14.997 15.6452 14.9134 15.6919 14.8169L17.9981 10.1837L20.3068 14.8169C20.3535 14.9134 20.4226 14.997 20.5082 15.0605C20.5937 15.124 20.6932 15.1656 20.7981 15.1816L25.863 15.9099L22.2306 19.4183C22.1473 19.5 22.0852 19.6012 22.0496 19.713C22.0141 19.8247 22.0063 19.9436 22.0268 20.0592L22.8943 25.071L18.2869 22.6721C18.1978 22.6256 18.099 22.6013 17.9988 22.6013C17.8985 22.6013 17.7997 22.6256 17.7106 22.6721H17.7119Z" fill="#040068"/>
</svg>
