<svg viewBox="0 0 36 36" fill="none" xmlns="http://www.w3.org/2000/svg">
<path d="M13.8462 15.7C14.2497 15.7 14.5769 16.0134 14.5769 16.4V24.8C14.5769 25.1866 14.2497 25.5 13.8462 25.5C13.4426 25.5 13.1154 25.1866 13.1154 24.8V16.4C13.1154 16.0134 13.4426 15.7 13.8462 15.7Z" fill="#040068"/>
<path d="M17.5 15.7C17.9036 15.7 18.2308 16.0134 18.2308 16.4V24.8C18.2308 25.1866 17.9036 25.5 17.5 25.5C17.0964 25.5 16.7692 25.1866 16.7692 24.8V16.4C16.7692 16.0134 17.0964 15.7 17.5 15.7Z" fill="#040068"/>
<path d="M21.8846 16.4C21.8846 16.0134 21.5574 15.7 21.1538 15.7C20.7503 15.7 20.4231 16.0134 20.4231 16.4V24.8C20.4231 25.1866 20.7503 25.5 21.1538 25.5C21.5574 25.5 21.8846 25.1866 21.8846 24.8V16.4Z" fill="#040068"/>
<path d="M27 12.2C27 12.9732 26.3456 13.6 25.5385 13.6H24.8077V26.2C24.8077 27.7464 23.499 29 21.8846 29H13.1154C11.501 29 10.1923 27.7464 10.1923 26.2V13.6H9.46154C8.65435 13.6 8 12.9732 8 12.2V10.8C8 10.0268 8.65435 9.4 9.46154 9.4H14.5769C14.5769 8.6268 15.2313 8 16.0385 8H18.9615C19.7687 8 20.4231 8.6268 20.4231 9.4H25.5385C26.3456 9.4 27 10.0268 27 10.8V12.2ZM11.8264 13.6L11.6538 13.6826V26.2C11.6538 26.9732 12.3082 27.6 13.1154 27.6H21.8846C22.6918 27.6 23.3462 26.9732 23.3462 26.2V13.6826L23.1736 13.6H11.8264ZM9.46154 12.2H25.5385V10.8H9.46154V12.2Z" fill="#040068"/>
</svg>