<svg viewBox="0 0 36 36" fill="none" xmlns="http://www.w3.org/2000/svg">
<path d="M17.5 26.6875C15.0633 26.6875 12.7264 25.7195 11.0035 23.9965C9.28047 22.2736 8.3125 19.9367 8.3125 17.5C8.3125 15.0633 9.28047 12.7264 11.0035 11.0035C12.7264 9.28047 15.0633 8.3125 17.5 8.3125C19.9367 8.3125 22.2736 9.28047 23.9965 11.0035C25.7195 12.7264 26.6875 15.0633 26.6875 17.5C26.6875 19.9367 25.7195 22.2736 23.9965 23.9965C22.2736 25.7195 19.9367 26.6875 17.5 26.6875ZM17.5 28C20.2848 28 22.9555 26.8938 24.9246 24.9246C26.8938 22.9555 28 20.2848 28 17.5C28 14.7152 26.8938 12.0445 24.9246 10.0754C22.9555 8.10625 20.2848 7 17.5 7C14.7152 7 12.0445 8.10625 10.0754 10.0754C8.10625 12.0445 7 14.7152 7 17.5C7 20.2848 8.10625 22.9555 10.0754 24.9246C12.0445 26.8938 14.7152 28 17.5 28Z" fill="#040068"/>
<path d="M16 20.7508C16 20.5867 16.0388 20.4243 16.1142 20.2727C16.1896 20.1212 16.3001 19.9834 16.4393 19.8674C16.5786 19.7514 16.744 19.6594 16.926 19.5967C17.108 19.5339 17.303 19.5016 17.5 19.5016C17.697 19.5016 17.892 19.5339 18.074 19.5967C18.256 19.6594 18.4214 19.7514 18.5607 19.8674C18.6999 19.9834 18.8104 20.1212 18.8858 20.2727C18.9612 20.4243 19 20.5867 19 20.7508C19 21.0821 18.842 21.3998 18.5607 21.6341C18.2794 21.8684 17.8978 22 17.5 22C17.1022 22 16.7206 21.8684 16.4393 21.6341C16.158 21.3998 16 21.0821 16 20.7508ZM16.147 13.2492C16.127 13.0916 16.1471 12.9323 16.2058 12.7815C16.2645 12.6308 16.3607 12.492 16.488 12.3743C16.6153 12.2565 16.7709 12.1623 16.9447 12.0978C17.1185 12.0333 17.3067 12 17.497 12C17.6873 12 17.8755 12.0333 18.0493 12.0978C18.2231 12.1623 18.3787 12.2565 18.506 12.3743C18.6333 12.492 18.7295 12.6308 18.7882 12.7815C18.8469 12.9323 18.867 13.0916 18.847 13.2492L18.322 17.6302C18.3044 17.8023 18.2098 17.9627 18.057 18.0795C17.9043 18.1963 17.7044 18.2612 17.497 18.2612C17.2896 18.2612 17.0897 18.1963 16.937 18.0795C16.7842 17.9627 16.6896 17.8023 16.672 17.6302L16.147 13.2492Z" fill="#040068"/>
</svg>
