<svg fill="none" viewBox="6 9 24 18">
  <path d="M15 18C16.1935 18 17.3381 17.5259 18.182 16.682C19.0259 15.8381 19.5 14.6935 19.5 13.5C19.5 12.3065 19.0259 11.1619 18.182 10.318C17.3381 9.47411 16.1935 9 15 9C13.8065 9 12.6619 9.47411 11.818 10.318C10.9741 11.1619 10.5 12.3065 10.5 13.5C10.5 14.6935 10.9741 15.8381 11.818 16.682C12.6619 17.5259 13.8065 18 15 18ZM18 13.5C18 14.2956 17.6839 15.0587 17.1213 15.6213C16.5587 16.1839 15.7956 16.5 15 16.5C14.2044 16.5 13.4413 16.1839 12.8787 15.6213C12.3161 15.0587 12 14.2956 12 13.5C12 12.7044 12.3161 11.9413 12.8787 11.3787C13.4413 10.8161 14.2044 10.5 15 10.5C15.7956 10.5 16.5587 10.8161 17.1213 11.3787C17.6839 11.9413 18 12.7044 18 13.5ZM24 25.5C24 27 22.5 27 22.5 27H7.5C7.5 27 6 27 6 25.5C6 24 7.5 19.5 15 19.5C22.5 19.5 24 24 24 25.5ZM22.5 25.494C22.4985 25.125 22.269 24.015 21.252 22.998C20.274 22.02 18.4335 21 15 21C11.565 21 9.726 22.02 8.748 22.998C7.731 24.015 7.503 25.125 7.5 25.494H22.5Z" fill="#040068"></path>
  <path fill-rule="evenodd" clip-rule="evenodd" d="M26.5 13C26.6857 13 26.8637 13.0843 26.995 13.2343C27.1263 13.3843 27.2 13.5878 27.2 13.8V16.2H29.3C29.4857 16.2 29.6637 16.2843 29.795 16.4343C29.9263 16.5843 30 16.7878 30 17C30 17.2122 29.9263 17.4157 29.795 17.5657C29.6637 17.7157 29.4857 17.8 29.3 17.8H27.2V20.2C27.2 20.4122 27.1263 20.6157 26.995 20.7657C26.8637 20.9157 26.6857 21 26.5 21C26.3143 21 26.1363 20.9157 26.005 20.7657C25.8737 20.6157 25.8 20.4122 25.8 20.2V17.8H23.7C23.5143 17.8 23.3363 17.7157 23.205 17.5657C23.0737 17.4157 23 17.2122 23 17C23 16.7878 23.0737 16.5843 23.205 16.4343C23.3363 16.2843 23.5143 16.2 23.7 16.2H25.8V13.8C25.8 13.5878 25.8737 13.3843 26.005 13.2343C26.1363 13.0843 26.3143 13 26.5 13Z" fill="#323239"></path>
</svg>