<svg fill="none" viewBox="6.67 8.67 11.33 6">
  <path fill-rule="evenodd" clip-rule="evenodd" d="M6.79473 8.79254C6.83522 8.75264 6.88332 8.72098 6.93627 8.69938C6.98922 8.67778 7.04598 8.66666 7.10331 8.66666C7.16064 8.66666 7.21741 8.67778 7.27036 8.69938C7.32331 8.72098 7.37141 8.75264 7.41189 8.79254L12.3335 13.6316L17.255 8.79254C17.2956 8.7527 17.3437 8.7211 17.3966 8.69954C17.4496 8.67798 17.5063 8.66689 17.5636 8.66689C17.6209 8.66689 17.6777 8.67798 17.7306 8.69954C17.7836 8.7211 17.8317 8.7527 17.8722 8.79254C17.9127 8.83238 17.9449 8.87967 17.9668 8.93172C17.9887 8.98377 18 9.03955 18 9.09589C18 9.15223 17.9887 9.20802 17.9668 9.26006C17.9449 9.31211 17.9127 9.35941 17.8722 9.39924L12.642 14.5408C12.6016 14.5807 12.5535 14.6123 12.5005 14.6339C12.4476 14.6555 12.3908 14.6667 12.3335 14.6667C12.2761 14.6667 12.2194 14.6555 12.1664 14.6339C12.1135 14.6123 12.0654 14.5807 12.0249 14.5408L6.79473 9.39924C6.75414 9.35944 6.72194 9.31216 6.69997 9.26011C6.678 9.20805 6.66669 9.15225 6.66669 9.09589C6.66669 9.03953 6.678 8.98373 6.69997 8.93168C6.72194 8.87962 6.75414 8.83234 6.79473 8.79254Z" fill="#323239"></path>
</svg>