<svg width="17" height="9" viewBox="0 0 17 9" fill="none" xmlns="http://www.w3.org/2000/svg">
<path fill-rule="evenodd" clip-rule="evenodd" d="M16.8079 8.81119C16.7472 8.87104 16.6751 8.91852 16.5956 8.95092C16.5162 8.98332 16.4311 9 16.3451 9C16.2591 9 16.1739 8.98332 16.0945 8.95092C16.0151 8.91852 15.9429 8.87104 15.8822 8.81119L8.49983 1.55261L1.11746 8.81119C1.05668 8.87094 0.984516 8.91834 0.905098 8.95068C0.825678 8.98302 0.740557 8.99966 0.654594 8.99966C0.568632 8.99966 0.483511 8.98302 0.404091 8.95068C0.324673 8.91834 0.25251 8.87094 0.191725 8.81119C0.130941 8.75143 0.0827236 8.68049 0.0498276 8.60242C0.0169296 8.52434 0 8.44066 0 8.35616C0 8.27165 0.0169296 8.18797 0.0498276 8.1099C0.0827236 8.03183 0.130941 7.96089 0.191725 7.90113L8.03696 0.188815C8.09769 0.128963 8.16983 0.0814781 8.24926 0.049078C8.32869 0.0166779 8.41383 0 8.49983 0C8.58582 0 8.67097 0.0166779 8.7504 0.049078C8.82982 0.0814781 8.90197 0.128963 8.9627 0.188815L16.8079 7.90113C16.8688 7.96083 16.9171 8.03175 16.9501 8.10984C16.983 8.18792 17 8.27162 17 8.35616C17 8.44069 16.983 8.5244 16.9501 8.60248C16.9171 8.68056 16.8688 8.75148 16.8079 8.81119Z" fill="#323239"/>
</svg>
