<svg viewBox="0 0 20 20" fill="none">
  <path fill-rule="evenodd" clip-rule="evenodd" d="M6.11111 10.2776C6.11111 10.1408 6.16232 10.0096 6.25347 9.91285C6.34462 9.81612 6.46825 9.76178 6.59716 9.76178H12.2286L10.1415 7.54805C10.0963 7.5001 10.0605 7.44317 10.036 7.38051C10.0115 7.31785 9.99895 7.2507 9.99895 7.18288C9.99895 7.11506 10.0115 7.04791 10.036 6.98525C10.0605 6.9226 10.0963 6.86566 10.1415 6.81771C10.1867 6.76975 10.2403 6.73171 10.2994 6.70576C10.3584 6.67981 10.4217 6.66645 10.4856 6.66645C10.5495 6.66645 10.6128 6.67981 10.6719 6.70576C10.7309 6.73171 10.7846 6.76975 10.8297 6.81771L13.7461 9.91239C13.7914 9.9603 13.8273 10.0172 13.8518 10.0799C13.8763 10.1425 13.8889 10.2097 13.8889 10.2776C13.8889 10.3454 13.8763 10.4126 13.8518 10.4752C13.8273 10.5379 13.7914 10.5948 13.7461 10.6427L10.8297 13.7374C10.7385 13.8343 10.6147 13.8887 10.4856 13.8887C10.3565 13.8887 10.2328 13.8343 10.1415 13.7374C10.0502 13.6406 9.99895 13.5092 9.99895 13.3722C9.99895 13.2353 10.0502 13.1039 10.1415 13.0071L12.2286 10.7933H6.59716C6.46825 10.7933 6.34462 10.739 6.25347 10.6423C6.16232 10.5455 6.11111 10.4144 6.11111 10.2776Z" fill="#323239"/>
</svg>