<svg viewBox="0 0 24 24" fill="none">
  <g>
    <path id="Vector" fill-rule="evenodd" clip-rule="evenodd" d="M8.79259 6.12805C8.83253 6.16853 8.86425 6.21663 8.88586 6.26958C8.90747 6.32253 8.91862 6.3793 8.91862 6.43663C8.91862 6.49395 8.90747 6.55072 8.88586 6.60367C8.86425 6.65662 8.83253 6.70472 8.79259 6.7452L3.95359 11.6668L8.79259 16.5884C8.83253 16.6289 8.86411 16.677 8.88561 16.7299C8.90711 16.7829 8.9182 16.8396 8.9182 16.8969C8.9182 16.9542 8.90711 17.011 8.88561 17.0639C8.86411 17.1169 8.83253 17.165 8.79259 17.2055C8.75268 17.246 8.70543 17.2782 8.65341 17.3001C8.60136 17.322 8.54558 17.3333 8.4893 17.3333C8.43289 17.3333 8.37722 17.322 8.32508 17.3001C8.27295 17.2782 8.22563 17.246 8.1857 17.2055L3.04419 11.9754C3.00428 11.9349 2.97261 11.8868 2.95101 11.8338C2.92941 11.7809 2.91829 11.7241 2.91829 11.6668C2.91829 11.6095 2.92941 11.5527 2.95101 11.4997C2.97261 11.4468 3.00428 11.3987 3.04419 11.3582L8.1857 6.12805C8.22552 6.08746 8.27278 6.05525 8.32488 6.03328C8.37688 6.01131 8.43268 6 8.4891 6C8.54544 6 8.60125 6.01131 8.65335 6.03328C8.70546 6.05525 8.75268 6.08746 8.79259 6.12805V6.12805Z" fill="#040068"/>
  </g>
</svg>
