<svg viewBox="0 0 24 24" fill="none">
<g>
<path id="Vector" fill-rule="evenodd" clip-rule="evenodd" d="M15.2074 6.12805C15.2473 6.16853 15.279 6.21663 15.3006 6.26958C15.3222 6.32253 15.3333 6.3793 15.3333 6.43663C15.3333 6.49395 15.3222 6.55072 15.3006 6.60367C15.279 6.65662 15.2473 6.70472 15.2074 6.7452L10.3684 11.6668L15.2074 16.5884C15.2473 16.6289 15.2789 16.677 15.3004 16.7299C15.322 16.7829 15.3331 16.8396 15.3331 16.8969C15.3331 16.9542 15.322 17.011 15.3004 17.0639C15.2789 17.1169 15.2473 17.165 15.2074 17.2055C15.1676 17.246 15.1203 17.2782 15.0683 17.3001C15.0162 17.322 14.9604 17.3333 14.9041 17.3333C14.8477 17.3333 14.792 17.322 14.7399 17.3001C14.6879 17.2782 14.6406 17.246 14.6007 17.2055L9.45919 11.9754C9.41929 11.9349 9.38763 11.8868 9.36603 11.8338C9.34443 11.7809 9.33331 11.7241 9.33331 11.6668C9.33331 11.6095 9.34443 11.5527 9.36603 11.4997C9.38763 11.4468 9.41929 11.3987 9.45919 11.3582L14.6007 6.12805C14.6405 6.08746 14.6878 6.05525 14.7399 6.03328C14.7919 6.01131 14.8477 6 14.9041 6C14.9604 6 15.0162 6.01131 15.0683 6.03328C15.1204 6.05525 15.1676 6.08746 15.2074 6.12805V6.12805Z" fill="#040068"/>
</g>
</svg>
