<svg viewBox="0 0 24 24" fill="none">
  <path d="M17.7482 6.25176C17.828 6.33137 17.8914 6.42593 17.9346 6.53004C17.9778 6.63416 18 6.74577 18 6.85849C18 6.97121 17.9778 7.08282 17.9346 7.18693C17.8914 7.29104 17.828 7.38561 17.7482 7.46521L13.2115 12.0002L17.7482 16.5352C17.8279 16.6149 17.8911 16.7095 17.9342 16.8136C17.9774 16.9177 17.9996 17.0293 17.9996 17.142C17.9996 17.2546 17.9774 17.3662 17.9342 17.4703C17.8911 17.5744 17.8279 17.669 17.7482 17.7487C17.6686 17.8284 17.574 17.8916 17.4699 17.9347C17.3658 17.9778 17.2542 18 17.1415 18C17.0288 18 16.9173 17.9778 16.8132 17.9347C16.7091 17.8916 16.6145 17.8284 16.5348 17.7487L11.9998 13.212L7.46476 17.7487C7.38509 17.8284 7.2905 17.8916 7.1864 17.9347C7.08229 17.9778 6.97072 18 6.85804 18C6.74536 18 6.63378 17.9778 6.52968 17.9347C6.42558 17.8916 6.33099 17.8284 6.25131 17.7487C6.17164 17.669 6.10843 17.5744 6.06531 17.4703C6.02219 17.3662 6 17.2546 6 17.142C6 17.0293 6.02219 16.9177 6.06531 16.8136C6.10843 16.7095 6.17164 16.6149 6.25131 16.5352L10.788 12.0002L6.25131 7.46521C6.17164 7.38554 6.10843 7.29095 6.06531 7.18684C6.02219 7.08274 6 6.97117 6 6.85849C6 6.74581 6.02219 6.63423 6.06531 6.53013C6.10843 6.42603 6.17164 6.33144 6.25131 6.25176C6.33099 6.17209 6.42558 6.10888 6.52968 6.06576C6.63378 6.02264 6.74536 6.00045 6.85804 6.00045C6.97072 6.00045 7.08229 6.02264 7.1864 6.06576C7.2905 6.10888 7.38509 6.17209 7.46476 6.25176L11.9998 10.7885L16.5348 6.25176C16.6144 6.17196 16.709 6.10864 16.8131 6.06544C16.9172 6.02224 17.0288 6 17.1415 6C17.2542 6 17.3658 6.02224 17.47 6.06544C17.5741 6.10864 17.6686 6.17196 17.7482 6.25176Z" fill="#323239"/>
</svg>