<svg viewBox="10.67 6 2.67 11.33">
  <path d="M13.3333 16.0256C13.3333 16.3725 13.1928 16.7051 12.9428 16.9503C12.6927 17.1956 12.3536 17.3333 12 17.3333C11.6463 17.3333 11.3072 17.1956 11.0571 16.9503C10.8071 16.7051 10.6666 16.3725 10.6666 16.0256C10.6666 15.6788 10.8071 15.3462 11.0571 15.101C11.3072 14.8557 11.6463 14.7179 12 14.7179C12.3536 14.7179 12.6927 14.8557 12.9428 15.101C13.1928 15.3462 13.3333 15.6788 13.3333 16.0256ZM13.3333 11.6667C13.3333 12.0135 13.1928 12.3461 12.9428 12.5913C12.6927 12.8366 12.3536 12.9744 12 12.9744C11.6463 12.9744 11.3072 12.8366 11.0571 12.5913C10.8071 12.3461 10.6666 12.0135 10.6666 11.6667C10.6666 11.3198 10.8071 10.9872 11.0571 10.742C11.3072 10.4967 11.6463 10.359 12 10.359C12.3536 10.359 12.6927 10.4967 12.9428 10.742C13.1928 10.9872 13.3333 11.3198 13.3333 11.6667V11.6667ZM13.3333 7.30769C13.3333 7.65451 13.1928 7.98713 12.9428 8.23237C12.6927 8.47761 12.3536 8.61538 12 8.61538C11.6463 8.61538 11.3072 8.47761 11.0571 8.23237C10.8071 7.98713 10.6666 7.65451 10.6666 7.30769C10.6666 6.96087 10.8071 6.62825 11.0571 6.38301C11.3072 6.13777 11.6463 6 12 6C12.3536 6 12.6927 6.13777 12.9428 6.38301C13.1928 6.62825 13.3333 6.96087 13.3333 7.30769V7.30769Z" fill="#040068"></path>
</svg>