<svg fill="none" viewBox="8 8 20 20">
  <path fill-rule="evenodd" clip-rule="evenodd" d="M8 8H9.25V26.75H28V28H8V8ZM26.5212 11.8912C26.5848 11.9433 26.6375 12.0073 26.6763 12.0797C26.7151 12.1521 26.7393 12.2314 26.7474 12.3131C26.7555 12.3948 26.7475 12.4774 26.7237 12.556C26.6999 12.6346 26.6608 12.7077 26.6087 12.7712L20.9838 19.6463C20.9285 19.7137 20.8597 19.7689 20.7818 19.8082C20.7039 19.8475 20.6186 19.87 20.5315 19.8744C20.4444 19.8787 20.3573 19.8648 20.2759 19.8335C20.1945 19.8022 20.1205 19.7541 20.0588 19.6925L16.825 16.4587L12.255 22.7425C12.155 22.8696 12.0097 22.953 11.8495 22.9752C11.6893 22.9974 11.5267 22.9567 11.396 22.8615C11.2652 22.7663 11.1764 22.6242 11.1483 22.4649C11.1201 22.3057 11.1548 22.1417 11.245 22.0075L16.245 15.1325C16.2981 15.0594 16.3664 14.9987 16.4452 14.9545C16.524 14.9103 16.6114 14.8837 16.7015 14.8766C16.7915 14.8695 16.8821 14.882 16.9668 14.9132C17.0516 14.9444 17.1286 14.9937 17.1925 15.0575L20.4538 18.32L25.6413 11.9788C25.6933 11.9152 25.7573 11.8625 25.8297 11.8237C25.9021 11.7849 25.9814 11.7607 26.0631 11.7526C26.1448 11.7445 26.2274 11.7525 26.306 11.7763C26.3846 11.8001 26.4577 11.8392 26.5212 11.8912Z" fill="#323239"></path>
</svg>